<svg width="529" height="435" viewBox="0 0 529 435" fill="none" xmlns="http://www.w3.org/2000/svg">
<path fill-rule="evenodd" clip-rule="evenodd" d="M322.679 36.174C347.265 42.348 374.703 58.1701 377.976 84.0721C379.621 97.1581 374.703 109.776 370.371 120.918L344.139 188.31C335.164 211.368 325 237.486 329.296 263.442C333.976 291.648 357.008 315.768 385.288 322.104C393.715 323.994 402.8 324.48 411.592 324.966C427.386 325.812 443.71 326.694 457.183 335.604C478.333 349.59 482.446 376.734 483.012 391.674C483.689 409.98 480.142 423.804 472.136 433.956C471.862 434.298 471.587 434.658 471.277 435H464.038C465.391 433.524 466.652 432.084 467.803 430.644C474.988 421.536 478.168 408.846 477.528 391.872C476.998 377.958 473.269 352.74 454.13 340.086C442.462 332.363 428.356 331.297 413.377 330.463L411.282 330.348C402.27 329.862 392.947 329.358 384.081 327.378C353.663 320.556 328.912 294.636 323.885 264.306C319.352 236.928 330.246 208.902 339.021 186.366L365.253 118.992C369.347 108.444 374.009 96.492 372.528 84.738C369.603 61.536 344.158 47.136 321.326 41.412C264.786 27.21 205.156 41.358 148.927 57.072C120.758 64.938 95.5861 72.552 72.8824 86.25C67.2521 89.634 61.695 93.468 56.3207 97.176C45.6452 104.556 34.604 112.17 22.1371 116.958C15.4466 119.532 7.75072 121.134 0 121.296V115.914C7.01952 115.752 14.0573 114.276 20.1446 111.936C31.99 107.382 42.7569 99.948 53.1765 92.766C58.624 89.004 64.2359 85.116 70.0124 81.642C93.3011 67.62 119.917 59.556 147.428 51.87C204.37 35.958 264.822 21.648 322.679 36.174ZM343.993 10.866C369.402 17.76 386.896 27.03 399.034 40.062C408.85 50.592 430.165 81.282 415.907 138.378C411.775 154.866 405.597 170.994 399.601 186.618C393.44 202.638 387.079 219.216 383.003 236.118C380.937 244.632 379.365 254.442 383.185 262.704C385.708 268.122 390.497 272.856 397.846 277.194C411.135 285.042 426.747 288.624 441.828 292.08L444.55 292.706C459.999 296.271 475.789 300.209 489.1 308.964C509.39 322.302 523.155 346.836 526.848 376.266C529.316 395.904 527.488 415.632 524.599 435H522.753C525.641 415.668 527.488 395.994 525.038 376.482C521.4 347.574 507.928 323.508 488.076 310.458C475.425 302.142 460.331 298.227 445.471 294.777L442.772 294.153C442.323 294.05 441.874 293.947 441.425 293.844C426.198 290.352 410.441 286.734 396.914 278.742C389.236 274.206 384.191 269.202 381.522 263.46C377.464 254.694 379.091 244.506 381.229 235.704C385.342 218.694 391.722 202.062 397.882 185.97C403.86 170.418 410.039 154.326 414.115 137.946C428.172 81.696 407.297 51.6 397.681 41.2681C385.799 28.5061 368.58 19.398 343.499 12.612C270.91 -7.07997 187.754 1.16402 81.8213 38.532L75.405 40.8181C51.0743 49.4581 25.921 58.386 0 58.35V56.55C22.441 56.5973 44.3501 49.7953 65.6785 42.3421L68.7214 41.2735C70.7474 40.5591 72.7681 39.8415 74.7835 39.126L81.218 36.84C187.516 -0.653988 271.019 -8.91597 343.993 10.866ZM283.888 72.57C309.133 76.566 323.812 93.126 327.175 107.778C330.402 121.82 325.347 135.799 319.952 149.372L319.247 151.14C319.13 151.434 319.012 151.728 318.895 152.022L317.999 154.272C299.481 200.82 293.942 240.33 301.072 275.034C311.509 325.812 348.271 354.954 380.078 361.326C383.076 361.938 386.202 362.388 389.236 362.82C396.457 363.882 403.915 364.98 410.642 368.148C426.089 375.474 435.777 393.996 434.187 413.202C433.583 420.42 431.536 427.728 428.136 435H426.125C429.342 428.322 431.7 420.942 432.359 413.058C433.894 394.572 424.644 376.77 409.838 369.768C403.385 366.708 396.054 365.646 388.962 364.602C385.909 364.17 382.765 363.702 379.712 363.09C359.951 359.13 341.745 348.186 327.029 331.428C313.374 315.858 303.521 295.968 299.28 275.394C292.078 240.33 297.635 200.496 316.299 153.606L317.195 151.356C322.861 137.208 328.693 122.592 325.402 108.174C322.167 94.116 308 78.204 283.596 74.334C270.105 72.21 256.286 74.64 242.923 77.016C238.389 77.808 233.728 78.636 229.14 79.266C209.672 81.966 190.203 86.178 171.265 91.83C133.06 103.224 97.2313 120.198 64.7478 142.284C63.1026 143.382 61.4756 144.516 59.8304 145.65C48.5517 153.444 36.8708 161.49 23.3984 165C15.7574 166.998 7.97008 167.43 0 167.592V165.792C7.82384 165.63 15.4832 165.198 22.9414 163.272C36.103 159.834 47.6377 151.878 58.7885 144.174C60.4337 143.04 62.0606 141.906 63.7058 140.79C96.3539 118.614 132.347 101.568 170.735 90.12C189.765 84.432 209.324 80.184 228.884 77.484C233.436 76.854 238.097 76.044 242.594 75.234C256.103 72.84 270.087 70.374 283.888 72.57ZM262.208 280.794C266.084 287.778 266.303 295.842 266.522 303.654C266.65 308.748 266.797 314.004 267.948 318.9C271.166 332.562 281.823 344.334 301.529 355.98C314.087 363.414 327.413 369.714 341.16 374.754L344.779 376.05C359.988 381.54 377.244 387.768 384.154 402.528C388.231 411.276 387.883 422.4 383.222 432.282C382.783 433.2 382.326 434.1 381.814 435H379.712C380.407 433.848 381.01 432.696 381.558 431.526C386 422.112 386.348 411.546 382.491 403.284C376.579 390.623 362.953 384.644 348.913 379.475L347.322 378.893C346.261 378.507 345.199 378.124 344.139 377.742L340.52 376.428C326.682 371.37 313.246 365.016 300.578 357.528C280.433 345.612 269.502 333.462 266.175 319.314C264.969 314.238 264.822 308.874 264.694 303.708C264.475 295.752 264.274 288.246 260.6 281.64C253.178 268.23 234.35 265.35 220.402 269.454C208.355 272.982 197.881 280.542 187.754 287.85C185.414 289.524 183.074 291.216 180.716 292.836C154.1 311.34 122.22 325.83 80.3772 338.412C55.9368 345.774 28.005 352.524 0 350.4V348.582C27.749 350.724 55.5164 343.992 79.8288 336.684C121.489 324.156 153.205 309.756 179.674 291.378C182.014 289.74 184.336 288.066 186.675 286.392C196.93 278.994 207.533 271.344 219.872 267.726C234.514 263.424 254.311 266.538 262.208 280.794ZM233.655 332.04C236.653 336.522 237.969 341.778 239.249 346.872C239.633 348.42 240.016 349.95 240.437 351.462C246.177 371.73 261.002 387.822 279.136 393.492C283.578 394.878 288.276 395.688 292.809 396.462C296.3 397.056 299.92 397.668 303.43 398.55C313.392 401.052 320.649 405.66 324.397 411.888C328.875 419.34 328.016 427.692 325.402 435H323.483C326.115 427.962 327.102 419.898 322.825 412.806C318.401 405.462 309.59 401.952 302.973 400.296C299.536 399.432 295.953 398.82 292.498 398.226C287.892 397.452 283.139 396.642 278.587 395.22C259.868 389.37 244.568 372.792 238.682 351.948C238.243 350.418 237.859 348.87 237.475 347.304C236.232 342.372 234.953 337.242 232.138 333.03C225.392 322.986 211.426 320.412 200.586 322.338C189.947 324.228 180.186 329.628 170.772 334.866L167.682 336.558C127.869 358.446 68.0747 382.62 0 381.162V379.38C67.6908 380.838 127.174 356.772 166.805 334.992L169.858 333.282C179.418 327.99 189.308 322.5 200.257 320.574C211.701 318.54 226.453 321.312 233.655 332.04ZM198.393 375.924C202.8 379.472 205.256 384.532 207.493 389.579L208.1 390.954C209.69 394.572 211.335 398.298 213.62 401.466C218.958 408.828 227.659 413.04 236.05 417.108C237.329 417.72 238.591 418.332 239.834 418.962C243.764 420.906 248.188 423.336 250.692 427.386C252.173 429.762 252.849 432.462 253.233 435H251.387C251.021 432.732 250.399 430.356 249.138 428.322C246.871 424.686 242.722 422.4 239.011 420.564C237.768 419.952 236.507 419.34 235.245 418.728L233.576 417.917C225.501 413.983 217.372 409.751 212.139 402.51C209.726 399.18 208.045 395.364 206.418 391.656C203.987 386.13 201.702 380.91 197.241 377.328C192.013 373.134 183.897 371.802 175.543 373.782C169.108 375.294 163.076 378.408 157.245 381.414C156.203 381.954 155.179 382.476 154.155 382.998C105.75 407.478 50.7636 414.372 0 418.656V416.856C50.5625 412.572 105.256 405.696 153.314 381.396C154.338 380.874 155.362 380.352 156.385 379.812C162.326 376.77 168.468 373.602 175.122 372.036C184.153 369.894 192.635 371.316 198.393 375.924ZM173.715 428.178C176.567 429.996 179.217 432.174 181.795 434.262L182.69 435H179.82C177.554 433.128 175.196 431.274 172.728 429.69C160.242 421.77 143.26 420.366 122.22 425.532C115.987 427.062 109.735 429.024 103.684 430.914C99.2056 432.3 94.6356 433.74 90.029 435H82.8267C89.7182 433.398 96.5001 431.274 103.136 429.204C109.205 427.296 115.493 425.334 121.781 423.786C143.315 418.494 160.791 419.97 173.715 428.178ZM127.284 152.058C163.862 136.92 239.98 105.438 268.058 120.63C273.889 123.78 277.436 128.802 278.587 135.552C283.335 163.184 254.323 196.354 238.201 212.335L237.097 213.422C234.935 215.539 233.044 217.311 231.553 218.676C206.509 241.59 176.493 258.798 145.344 275.844C107.687 296.472 65.0037 319.836 18.5176 321.384C17.1649 321.438 15.8122 321.456 14.496 321.456C9.26796 321.456 4.44204 321.096 0 320.358V318.54C5.52056 319.476 11.6626 319.818 18.4628 319.584C64.5101 318.054 106.993 294.798 144.467 274.278C175.506 257.286 205.412 240.15 230.31 217.362C242.576 206.13 282.152 167.106 276.777 135.858C275.717 129.684 272.482 125.094 267.18 122.214C239.888 107.436 164.301 138.702 127.997 153.714C120.282 156.9 114.213 159.42 110.631 160.662C73.8878 173.352 32.5932 187.608 0 213.132V210.828C32.6481 185.682 73.5587 171.534 110.027 158.952C113.555 157.746 119.606 155.226 127.284 152.058ZM85.0386 199.308C95.0377 195.744 110.503 195.114 120.867 202.17C127.211 206.49 130.629 213.096 130.72 221.268C130.848 231.258 124.907 241.158 112.568 251.508C95.5313 265.818 75.2222 276.852 52.1711 284.34C39.7224 288.39 28.9921 290.37 19.3402 290.37C14.9348 290.37 10.7304 289.956 6.70876 289.128C4.67968 288.732 2.1022 288.048 0 286.626V284.304C1.9194 286.14 4.86248 286.914 7.07436 287.382C19.6327 289.92 33.7814 288.408 51.6044 282.63C74.4179 275.214 94.5259 264.288 111.38 250.14C123.28 240.15 129.002 230.718 128.892 221.286C128.801 213.618 125.748 207.678 119.825 203.646C111.398 197.904 97.3593 196.824 85.6784 201L80.889 202.71C60.1046 210.108 38.6074 217.74 21.607 232.05C10.9863 240.996 3.50976 251.85 0 263.1V257.772C4.05816 247.926 11.0411 238.566 20.4188 230.682C29.0469 223.428 38.7719 217.866 48.9538 213.204C59.1541 208.524 69.793 204.744 80.2675 201.018L85.0386 199.308ZM214.168 153.12C224.552 152.544 232.284 155.532 235.392 161.274C238.408 166.818 236.781 174.198 230.803 182.046C219.378 197.076 200.331 206.364 181.466 206.364C180.241 206.364 178.998 206.328 177.773 206.238C175.634 206.094 173.386 205.842 171.338 204.852C165.836 202.188 164.228 195.492 164.502 190.578C165.05 181.002 171.302 171.336 181.191 164.73C186.218 161.382 191.812 158.628 197.479 156.63C203.127 154.632 208.867 153.408 214.168 153.12ZM216.618 154.848C215.85 154.848 215.064 154.884 214.26 154.92C203.987 155.478 192.013 159.69 182.233 166.224C177.517 169.356 173.678 173.226 170.936 177.42C168.213 181.632 166.604 186.168 166.33 190.686C166.074 195.042 167.445 200.964 172.143 203.232C173.898 204.078 175.945 204.312 177.901 204.438C197.333 205.716 217.532 196.5 229.341 180.966C234.861 173.712 236.452 167.016 233.783 162.12C231.242 157.44 225.063 154.848 216.618 154.848Z" fill="#575445" fill-opacity="0.09"/>
</svg>
