<svg width="448" height="424" viewBox="0 0 448 424" fill="none" xmlns="http://www.w3.org/2000/svg">
<path fill-rule="evenodd" clip-rule="evenodd" d="M403.57 113.598C419.821 117.036 435.432 119.592 447.862 114.678V120.384C432.836 125.298 415.086 121.554 402.418 118.872C279.778 92.952 178.36 95.796 92.3345 127.602C47.6582 144.108 20.2747 167.13 10.9153 196.038C6.71094 209.034 6.32708 223.056 5.96148 236.61C5.15716 266.742 4.29803 297.9 13.3101 327.15C18.4833 343.998 27.2393 361.152 40.0719 379.584C47.2559 389.898 56.2497 401.292 68.4242 407.574C79.0632 413.082 91.3656 414.45 104.089 415.476C120.266 416.772 136.663 417.6 152.878 417.942C161.872 418.122 169.897 418.032 177.099 414.99C186.093 411.156 192.728 402.948 198.578 395.712L270.053 307.26C282.556 291.78 296.741 274.23 315.387 263.088C331.912 253.188 357.102 246.798 378.215 258.498C382.347 260.802 386.076 263.664 389.677 266.436C393.022 269.028 396.185 271.476 399.658 273.492C413.916 281.79 430.77 281.592 447.862 277.56V282.996C421.704 288.972 407.427 284.274 396.879 278.136C393.077 275.94 389.622 273.276 386.295 270.702C382.694 267.93 379.294 265.302 375.528 263.214C359.826 254.502 337.341 256.266 318.22 267.696C300.434 278.334 287.163 294.75 274.33 310.626L202.874 399.078C196.914 406.44 189.529 415.584 179.274 419.94C172.474 422.82 165.107 423.396 157.503 423.396C155.931 423.396 154.34 423.378 152.75 423.342C136.444 423 119.919 422.154 103.65 420.858C90.342 419.778 77.4362 418.338 65.8833 412.362C52.6303 405.522 43.1247 393.498 35.5568 382.644C22.3952 363.744 13.4014 346.104 8.04537 328.716C0.0408389 302.671 -0.393253 275.508 0.168033 248.859L0.248198 245.309C0.262348 244.718 0.276827 244.127 0.291599 243.536L0.382977 239.997C0.414146 238.819 0.44584 237.642 0.477479 236.466C0.861359 222.534 1.24519 208.134 5.68723 194.4C15.5767 163.836 44.0936 139.662 90.4151 122.544C177.446 90.36 279.887 87.444 403.57 113.598ZM110.724 147.438C156.899 132.516 242.852 104.742 274.257 167.526C282.099 183.222 283.671 202.806 278.681 222.696C274.732 238.464 266.908 254.466 254.094 273.06C241.646 291.132 226.309 309.312 205.835 330.282C189.858 346.644 175.746 359.388 158.801 368.334C145.2 375.516 131.198 379.188 117.963 379.188C111.529 379.188 105.295 378.324 99.3722 376.578C81.4578 371.304 65.0607 357.084 54.3669 337.554C44.5688 319.644 40.072 299.412 36.6902 280.224C31.389 250.2 28.3728 215.91 46.0861 189.162C61.8252 165.384 90.5248 153.954 110.724 147.438ZM272.612 168.318C241.901 106.956 156.936 134.388 111.291 149.148C91.3474 155.592 63.0499 166.842 47.6216 190.152C30.2373 216.378 33.2535 250.236 38.4999 279.918C41.8634 298.962 46.3054 319.014 55.9755 336.69C66.45 355.806 82.445 369.72 99.9024 374.85C117.323 379.98 138.473 377.028 157.923 366.75C174.668 357.912 188.67 345.276 204.519 329.022C224.919 308.142 240.183 290.034 252.595 272.052C265.282 253.638 273.014 237.816 276.908 222.264C281.807 202.788 280.271 183.636 272.612 168.318ZM118.932 174.474C156.534 160.902 209.966 147.078 239.671 183.636C246.343 191.826 249.689 200.88 249.689 210.636C249.689 215.37 248.903 220.284 247.331 225.342C242.724 240.192 233.419 254.16 224.919 265.86C214.737 279.846 203.148 293.544 189.474 307.728C179.439 318.15 168.343 328.77 155.218 335.916C144.908 341.55 133.867 344.484 123.538 344.484C119.297 344.484 115.166 343.998 111.273 342.99C97.6174 339.48 85.1322 329.418 77.0341 315.378C69.3748 302.004 66.1392 286.56 63.9822 273.186C63.7263 271.692 63.5069 270.18 63.2875 268.668C60.8197 251.298 59.0283 225.918 72.0254 206.244C80.8912 192.834 95.7894 182.736 118.932 174.474ZM185.179 162.018C162.804 162.018 139.04 169.128 119.572 176.166C96.813 184.284 82.189 194.148 73.5609 207.216C60.8928 226.404 62.666 251.334 65.0972 268.416C65.3166 269.928 65.5359 271.422 65.7736 272.916C67.9123 286.11 71.1114 301.374 78.6245 314.478C86.4849 328.122 98.5497 337.878 111.73 341.244C124.672 344.574 140.21 342.072 154.322 334.35C167.228 327.312 178.214 316.8 188.158 306.486C201.777 292.374 213.311 278.73 223.439 264.798C231.847 253.224 241.061 239.418 245.594 224.82C250.219 209.916 247.751 196.434 238.245 184.752C231.372 176.292 223.164 170.604 214.134 167.04C205.122 163.476 195.287 162.018 185.179 162.018ZM127.121 201.528C150.995 191.07 193.368 184.194 207.572 199.026C217.187 208.332 221.117 215.37 215.98 228.024C211.593 238.824 202.929 249.642 195.982 258.336L195.726 258.66C188.853 267.246 181.358 276.408 173.114 285.192C166.862 291.834 159.934 298.674 151.635 303.498C144.506 307.692 136.609 309.924 129.205 309.924C127.158 309.924 125.147 309.744 123.191 309.402C113.722 307.692 105.167 301.806 99.7196 293.202C94.2173 284.526 92.2979 274.194 91.2559 266.148C91.128 265.194 91.0183 264.222 90.9086 263.232C89.1172 246.33 91.4387 233.262 97.9829 223.308C105.441 211.932 118.182 205.434 127.121 201.528ZM178.89 192.348C162.054 192.348 141.928 197.01 127.871 203.166C113.996 209.232 105.003 215.946 99.5185 224.28C93.2119 233.892 90.9817 246.564 92.7366 263.052C92.828 264.006 92.9559 264.978 93.0656 265.932C94.0893 273.78 95.954 283.878 101.273 292.248C106.447 300.42 114.563 306.018 123.52 307.638C132.057 309.168 141.965 307.098 150.703 301.95C158.801 297.234 165.619 290.52 171.779 283.968C179.969 275.238 187.445 266.112 194.282 257.544L194.538 257.22C201.429 248.616 209.984 237.906 214.28 227.358C218.594 216.738 216.73 210.42 206.274 200.304L206.255 200.286C200.863 194.634 190.681 192.348 178.89 192.348ZM169.951 215.838C179.475 215.064 184.959 216.522 186.696 220.266C189.758 226.812 179.984 238.167 169.121 248.926L168.067 249.965C167.891 250.138 167.715 250.31 167.538 250.483L166.478 251.514C163.937 253.98 161.616 256.788 159.386 259.506C156.004 263.592 152.512 267.804 148.125 271.044C144.103 274.014 138.839 275.85 133.848 275.85C129.479 275.85 125.33 274.446 122.46 271.116C119.754 268.002 118.438 263.502 118.53 257.724C118.676 250.524 121.071 244.494 124.434 239.58C127.779 234.666 132.075 230.868 135.987 228.078C145.365 221.382 158.069 216.81 169.951 215.838ZM185.032 221.022C183.698 218.124 178.543 216.954 170.098 217.638C136.261 220.392 120.65 242.766 120.358 257.76C120.266 263.07 121.436 267.174 123.849 269.946C129.333 276.264 140.155 274.68 147.028 269.604C151.233 266.508 154.651 262.368 157.96 258.372C160.226 255.618 162.584 252.774 165.199 250.236C165.772 249.681 166.431 249.043 167.155 248.335L167.898 247.605C175.271 240.336 187.86 227.065 185.032 221.022ZM334.27 134.118C347.578 134.388 360.959 136.224 373.901 138.024C381.67 139.086 389.714 140.202 397.629 140.94C417.719 142.848 434.043 141.894 447.862 137.898V139.77C433.915 143.712 417.554 144.648 397.464 142.74C389.494 141.984 381.433 140.868 373.645 139.806C360.758 138.024 347.432 136.188 334.234 135.918C328.238 135.81 321.511 136.26 317.489 140.562C312.444 145.908 314.327 154.368 315.369 157.752C316.063 160.038 316.977 162.306 317.873 164.52C319.354 168.174 320.871 171.954 321.493 175.95C322.205 180.54 321.694 185.202 321.2 189.702C320.962 191.844 320.725 194.076 320.615 196.254C320.396 200.898 320.889 209.376 326.702 213.876C331.894 217.872 338.657 217.188 345.842 216.45C349.753 216.054 353.812 215.622 357.669 216.018C367.046 216.972 374.779 222.66 382.255 228.15C384.705 229.932 387.227 231.804 389.75 233.442C406.677 244.44 428.211 247.788 447.862 243.27V245.124C442.195 246.384 436.401 247.014 430.588 247.014C415.836 247.014 401.102 242.964 388.745 234.936C386.185 233.262 383.626 231.408 381.177 229.59L379.762 228.554C372.906 223.55 365.78 218.66 357.486 217.818C353.812 217.44 349.863 217.854 346.024 218.232C338.804 218.988 331.345 219.744 325.569 215.28C319.116 210.294 318.549 201.168 318.787 196.164C318.897 193.932 319.153 191.682 319.39 189.504C319.866 185.112 320.377 180.576 319.683 176.22C319.098 172.422 317.617 168.75 316.173 165.186C315.277 162.936 314.345 160.632 313.614 158.274C312.481 154.584 310.47 145.386 316.137 139.338C320.67 134.532 327.836 134.01 334.27 134.118ZM447.862 161.334V163.206C426.785 169.002 404.1 167.184 383.791 165.546C375.492 164.88 363.939 164.88 359.533 172.584C356.225 178.398 359.095 185.994 363.482 190.188C368.289 194.796 375.071 197.064 381.689 198.846C404.794 205.038 427.297 206.532 447.862 203.364V205.182C440.879 206.262 433.713 206.784 426.365 206.784C411.832 206.784 396.642 204.714 381.213 200.574C374.358 198.738 367.321 196.38 362.202 191.484C357.212 186.696 354.141 178.362 357.943 171.702C362.86 163.098 375.126 163.044 383.937 163.764C404.264 165.402 426.968 167.22 447.862 161.334ZM108.64 0C107.781 19.098 104.399 37.944 98.5496 56.304C96.1915 63.666 94.1077 71.946 98.9701 77.022C102.845 81.054 109.408 80.982 114.673 80.478C126.189 79.362 137.687 76.662 148.783 74.07C153.481 72.972 158.344 71.82 163.151 70.812C223.554 58.1768 284.982 63.5919 347.687 72.4121L352.278 73.0633C355.34 73.5013 358.405 73.9465 361.473 74.3972L366.077 75.0772C366.845 75.1912 367.613 75.3055 368.381 75.42C392.748 79.056 421.338 83.322 447.862 78.84V80.676C439.746 82.044 431.429 82.584 423.111 82.584C404.118 82.584 385.107 79.74 368.107 77.202C363.508 76.516 358.917 75.8397 354.333 75.1787L349.752 74.523C286.403 65.5292 224.391 59.836 163.535 72.576C158.746 73.584 153.901 74.718 149.204 75.816C138.034 78.426 126.5 81.126 114.855 82.26C109.609 82.764 102.114 82.908 97.6356 78.246C92.0968 72.468 94.3087 63.612 96.8131 55.764C102.59 37.602 105.935 18.9 106.794 0H108.64ZM144.012 0C144.414 10.44 142.202 20.97 137.559 30.348L137.285 30.906C136.407 32.652 135.512 34.452 135.457 36.288C135.311 40.338 139.296 43.56 143.244 44.334C147.394 45.162 151.781 44.064 156.004 43.002L156.205 42.948C200.004 31.95 245.082 27.648 290.215 30.186C303.706 30.942 317.38 32.328 330.596 33.678C348.163 35.46 366.333 37.314 384.266 37.674C408.524 38.196 429.564 35.802 447.862 30.42V32.292C429.509 37.62 408.451 39.996 384.23 39.474C366.224 39.096 348.017 37.26 330.413 35.46C317.215 34.128 303.56 32.724 290.106 31.968C245.174 29.466 200.278 33.732 156.662 44.694L156.461 44.748C153.152 45.576 149.752 46.422 146.334 46.422C145.182 46.422 144.03 46.332 142.879 46.098C138.199 45.18 133.446 41.238 133.629 36.216C133.702 34.002 134.689 32.022 135.64 30.114L135.932 29.556C140.447 20.412 142.604 10.152 142.202 0H144.012Z" fill="#575445" fill-opacity="0.09"/>
</svg>
