<svg width="1440" height="393" viewBox="0 0 1440 393" fill="none" xmlns="http://www.w3.org/2000/svg">
<path d="M0 0H1440V393H0V0Z" fill="#375C58"/>
<path fill-rule="evenodd" clip-rule="evenodd" d="M182.458 397.021C185.453 397.815 188.237 398.766 190.944 399.678L191.885 400H188.87C186.49 399.183 184.013 398.373 181.421 397.681C168.307 394.223 150.47 393.61 128.371 395.866C121.824 396.534 115.258 397.391 108.902 398.216C104.198 398.821 99.3984 399.45 94.56 400H86.9952C94.2336 399.3 101.357 398.373 108.326 397.469C114.701 396.636 121.306 395.779 127.91 395.103C150.528 392.792 168.883 393.437 182.458 397.021ZM245.414 355.041C248.563 356.998 249.946 359.293 251.29 361.517C251.693 362.193 252.096 362.862 252.538 363.522C258.566 372.372 274.138 379.399 293.184 381.875C297.85 382.48 302.784 382.834 307.546 383.172C311.213 383.431 315.014 383.698 318.701 384.083C329.165 385.176 336.787 387.188 340.723 389.908C345.427 393.162 344.525 396.809 341.779 400H339.763C342.528 396.927 343.565 393.405 339.072 390.309C334.426 387.102 325.171 385.569 318.221 384.846C314.611 384.469 310.848 384.201 307.219 383.942C302.381 383.604 297.389 383.25 292.608 382.629C272.947 380.075 256.877 372.836 250.694 363.734C250.234 363.066 249.83 362.39 249.427 361.706C248.122 359.552 246.778 357.312 243.821 355.473C236.736 351.087 222.067 349.963 210.682 350.804C200.335 351.568 190.778 353.647 181.57 355.766L179.366 356.275L176.122 357.014C134.304 366.571 71.5008 377.127 0 376.491V375.713C71.0976 376.349 133.574 365.84 175.2 356.33L178.406 355.583C188.448 353.272 198.835 350.875 210.336 350.034C222.355 349.146 237.85 350.356 245.414 355.041ZM338.918 225.846C364.742 228.542 393.562 235.451 396.998 246.761C398.726 252.476 393.562 257.986 389.011 262.851L361.459 292.279C352.032 302.347 341.357 313.752 345.869 325.086C350.784 337.403 374.976 347.935 404.678 350.702C413.53 351.527 423.072 351.74 432.307 351.952C448.896 352.321 466.042 352.706 480.192 356.597C502.406 362.704 506.726 374.557 507.322 381.081C508.032 389.075 504.307 395.111 495.898 399.544C495.61 399.693 495.322 399.851 494.995 400H487.392C488.813 399.355 490.138 398.727 491.347 398.098C498.893 394.121 502.234 388.579 501.562 381.167C501.005 375.092 497.088 364.08 476.986 358.554C464.16 355.025 448.531 354.679 431.981 354.302C422.515 354.09 412.723 353.87 403.411 353.005C371.462 350.026 345.466 338.708 340.186 325.464C335.424 313.509 346.867 301.271 356.083 291.43L383.635 262.01C387.936 257.404 392.832 252.185 391.277 247.052C388.205 236.921 361.478 230.633 337.498 228.133C283.457 222.49 226.729 227.098 172.45 233.144L168.875 233.545L165.307 233.949C164.713 234.016 164.12 234.084 163.526 234.152L159.97 234.561C158.786 234.697 157.604 234.834 156.422 234.971C126.835 238.406 100.397 241.731 76.5504 247.713C70.6368 249.19 64.8 250.864 59.1552 252.484C47.9424 255.706 36.3456 259.031 23.2512 261.122C16.224 262.246 8.1408 262.945 0 263.016V260.666C7.3728 260.595 14.7648 259.951 21.1584 258.929C33.6 256.94 44.9088 253.694 55.8528 250.558C61.5744 248.915 67.4688 247.217 73.536 245.7C97.9968 239.577 125.952 236.056 154.848 232.7C159.035 232.214 163.239 231.731 167.46 231.255L171.081 230.85C226.063 224.729 283.62 220.074 338.918 225.846ZM896.544 331.532C905.299 333.143 911.808 337.104 913.498 341.875C914.799 345.548 913.498 349.257 911.924 352.88L911.489 353.866C911.416 354.03 911.343 354.193 911.27 354.357L911.194 354.522C904.57 369.299 899.021 385.954 913.248 400H911.194C897.139 385.821 902.688 369.173 909.293 354.381L909.37 354.216C911.174 350.191 913.037 346.033 911.597 341.993C910.349 338.456 905.53 334.039 895.757 332.255C882.95 329.905 868.339 332.915 855.456 335.579L854.093 335.862C803.002 346.379 743.174 348.941 690.374 351.205C668.736 352.133 644.659 353.728 632.832 360.959C625.443 365.471 624.656 371.143 624.334 376.735L624.29 377.552C624.283 377.689 624.276 377.825 624.269 377.961L624.23 378.943C623.827 385.97 622.483 393.02 620.179 400H618.24C620.544 393.012 621.907 385.954 622.31 378.927L622.349 377.945C622.371 377.539 622.392 377.132 622.416 376.724L622.468 375.909C622.842 370.47 623.9 364.998 631.238 360.519C643.526 353.005 668.102 351.37 690.182 350.427C742.81 348.171 802.464 345.617 853.229 335.155L854.592 334.872C867.859 332.137 882.893 329.032 896.544 331.532ZM864.499 360.967C867.014 362.594 867.302 364.599 867.264 366.155C867.187 369.653 865.018 373.119 862.714 376.789L862.304 377.443C857.877 384.525 853.774 391.841 865.248 400H863.04C852.218 392.011 855.747 384.847 860.019 377.929L860.434 377.26C860.573 377.038 860.712 376.815 860.851 376.593C863.117 372.969 865.267 369.55 865.344 366.147C865.382 364.693 865.133 362.846 862.886 361.384C858.49 358.539 848.698 357.941 832.934 359.545C794.746 363.435 755.443 365.691 716.102 366.241C699.533 366.469 680.755 366.736 669.523 371.673C659.309 376.161 658.886 383.195 659.674 388.831L659.885 390.309C660.365 393.539 660.864 396.832 660.038 400H658.08C658.925 396.864 658.445 393.578 657.965 390.356L657.754 388.878C656.947 383.085 657.408 375.838 668.122 371.13C679.91 365.958 699.091 365.691 716.045 365.455C755.232 364.905 794.419 362.665 832.474 358.782C838.598 358.153 857.242 356.259 864.499 360.967ZM361.306 214.795C387.994 217.805 406.368 221.853 419.117 227.544C429.427 232.142 451.814 245.543 436.838 270.475C432.499 277.675 426.01 284.717 419.712 291.54C413.242 298.535 406.56 305.774 402.278 313.155C400.109 316.873 398.458 321.156 402.47 324.764C405.12 327.13 410.15 329.197 417.869 331.091C430.927 334.297 446.118 335.873 460.992 337.298L464.064 337.592C481.19 339.227 498.912 340.916 513.715 344.964C535.027 350.789 549.485 361.502 553.363 374.353C555.955 382.928 554.035 391.543 551.002 400H549.062C552.096 391.558 554.035 382.967 551.462 374.447C547.642 361.824 533.491 351.315 512.64 345.617C498.144 341.655 480.595 339.981 463.642 338.362C447.648 336.837 431.098 335.257 416.89 331.767C408.826 329.787 403.526 327.602 400.723 325.094C396.461 321.266 398.17 316.818 400.416 312.974C404.736 305.546 411.437 298.284 417.907 291.257C424.186 284.466 430.675 277.439 434.957 270.286C449.722 245.724 427.795 232.582 417.696 228.07C405.216 222.498 387.13 218.52 360.787 215.557C284.544 206.958 197.203 210.558 85.9392 226.876L79.2 227.874L77.6017 228.11L74.3983 228.582C50.3392 232.119 25.524 235.544 0 235.53V234.743C25.8152 234.766 50.9603 231.201 75.3678 227.604L78.5472 227.135L85.3056 226.137C196.954 209.764 284.659 206.157 361.306 214.795ZM1372.74 146.177C1381.82 146.743 1389.83 148.653 1397.57 150.5C1401.98 151.553 1406.53 152.638 1411.24 153.463C1420.22 155.035 1430.21 155.648 1440 155.326V156.112C1429.94 156.434 1419.71 155.806 1410.49 154.186C1405.67 153.345 1401.06 152.245 1396.61 151.176C1388.68 149.282 1381.17 147.497 1372.45 146.955C1350.53 145.588 1331.46 152.614 1317.29 158.887C1295.75 168.358 1275.53 178.662 1257.24 189.517C1248.69 194.579 1239.28 200.529 1235.54 207.108C1234.64 208.695 1233.98 210.433 1233.5 212.563C1233.2 213.915 1232.99 215.298 1232.77 216.642C1232.52 218.238 1232.28 219.888 1231.85 221.507C1227.28 239.318 1201.42 256.744 1162.66 268.125C1158.82 269.249 1154.84 270.318 1150.85 271.3C1148.87 271.78 1146.85 272.259 1144.82 272.747C1144.3 272.871 1143.77 272.995 1143.25 273.119L1141.67 273.493L1140.1 273.87L1138.53 274.251C1127.32 276.994 1116.76 280.084 1112.1 284.961C1106.65 290.644 1111.16 296.397 1115.96 302.489C1118.73 306.018 1121.61 309.673 1122.39 313.336C1123.2 317.101 1121.78 320.905 1120.11 324.458C1119.72 325.267 1119.32 326.085 1118.92 326.894C1117.96 328.859 1116.96 330.887 1116.25 332.883C1114.64 337.411 1114.5 342.103 1115.87 346.851C1120.4 362.571 1140.88 377.135 1170.68 385.813C1187.96 390.867 1206.87 395.536 1228.15 400H1223.96C1203.94 395.732 1186.02 391.268 1169.57 386.457C1139.33 377.654 1118.55 362.877 1113.96 346.937C1112.58 342.127 1112.72 337.364 1114.35 332.773C1115.06 330.753 1116.06 328.718 1117.04 326.737C1117.44 325.927 1117.84 325.118 1118.23 324.308C1120.13 320.268 1121.22 316.865 1120.47 313.406C1119.71 309.83 1116.86 306.214 1114.14 302.725C1109.45 296.775 1104.61 290.612 1110.3 284.67C1115.76 278.982 1128.61 275.688 1141.49 272.624L1143.07 272.249C1143.33 272.187 1143.6 272.125 1143.86 272.063C1145.88 271.583 1147.89 271.104 1149.87 270.624C1153.82 269.658 1157.74 268.597 1161.54 267.488C1199.85 256.233 1225.42 239.019 1229.95 221.429C1230.36 219.825 1230.62 218.182 1230.85 216.587C1231.07 215.243 1231.28 213.852 1231.6 212.484C1232.08 210.322 1232.76 208.554 1233.68 206.927C1237.48 200.222 1247.02 194.194 1255.66 189.069C1274.02 178.183 1294.27 167.855 1315.89 158.352C1330.37 151.938 1349.95 144.754 1372.74 146.177ZM275.405 332.663C279.475 335.713 279.706 339.234 279.936 342.646C280.07 344.87 280.224 347.165 281.434 349.303C284.813 355.269 296.006 360.409 316.704 365.495C329.894 368.741 343.891 371.492 358.33 373.693L362.131 374.259C378.106 376.656 396.23 379.375 403.488 385.821C407.77 389.641 407.405 394.498 402.509 398.813C402.048 399.214 401.568 399.607 401.03 400H398.822C399.552 399.497 400.186 398.994 400.762 398.483C405.427 394.372 405.792 389.758 401.741 386.151C394.829 379.996 377.875 377.458 361.459 374.997L357.658 374.424C343.123 372.215 329.011 369.44 315.706 366.171C294.547 360.967 283.066 355.662 279.571 349.484C278.304 347.267 278.15 344.925 278.016 342.669C277.786 339.195 277.574 335.917 273.715 333.033C265.92 327.177 246.144 325.919 231.494 327.712C218.842 329.252 207.84 332.553 197.203 335.745C194.746 336.475 192.288 337.214 189.811 337.922C161.856 346.002 128.371 352.329 84.4224 357.823C58.752 361.038 29.4144 363.985 0 363.058V362.264C29.1456 363.199 58.3104 360.26 83.8464 357.069C127.603 351.598 160.915 345.31 188.717 337.285C191.174 336.57 193.613 335.839 196.07 335.108C206.842 331.877 217.978 328.537 230.938 326.957C246.317 325.078 267.11 326.438 275.405 332.663ZM819.456 379.886C821.146 380.594 821.568 381.6 821.76 382.401C822.528 385.718 820.55 389.09 818.65 392.36C817.094 395.001 815.616 397.548 815.52 400H813.619C813.715 397.414 815.27 394.765 816.787 392.171C818.65 388.972 820.589 385.655 819.859 382.48C819.686 381.804 819.36 380.963 818.093 380.436C816 379.556 812.314 379.784 809.05 380.059C792.979 381.435 776.544 382.118 760.109 382.063C757.786 382.056 755.443 382.04 753.082 382.016C740.506 381.914 727.507 381.804 716.045 383.808C709.382 384.972 704.736 386.732 702.97 388.752C701.894 389.994 701.818 391.362 701.741 392.682L701.318 400H699.398L699.821 392.667C699.898 391.346 699.974 389.853 701.165 388.493C703.123 386.261 708.134 384.343 715.277 383.085C726.423 381.143 738.756 381.123 750.794 381.212L753.12 381.23C755.462 381.254 757.805 381.27 760.128 381.277C776.41 381.317 792.73 380.649 808.646 379.297C811.373 379.061 816.461 378.629 819.456 379.886ZM1388.43 160.875C1396.19 161.315 1403.06 162.832 1409.72 164.302C1413.52 165.135 1417.46 166.008 1421.49 166.652C1427.4 167.603 1433.68 168.106 1440 168.161V168.947C1433.45 168.892 1426.91 168.374 1420.78 167.383C1416.63 166.715 1412.66 165.843 1408.82 164.994C1402 163.493 1395.57 162.078 1388.16 161.653C1369.69 160.6 1353.12 166.291 1340.77 171.368C1321.48 179.307 1303.72 187.961 1288.01 197.071C1280.66 201.346 1272.5 206.377 1268.97 212.06C1268.14 213.419 1267.49 214.897 1266.97 216.705C1266.62 217.915 1266.36 219.149 1266.09 220.344C1265.82 221.657 1265.51 223.016 1265.11 224.345C1260.5 239.507 1239.21 254.669 1208.14 264.902C1205.05 265.924 1201.84 266.891 1198.64 267.787C1196.97 268.259 1195.22 268.73 1193.49 269.202L1192.75 269.402L1191.26 269.804L1189.77 270.21C1180.36 272.789 1171.28 275.62 1167.11 279.954C1162.74 284.473 1165.18 289.006 1168.22 293.768L1168.67 294.467C1168.75 294.584 1168.82 294.7 1168.9 294.817C1170.84 297.796 1172.81 300.885 1173.2 303.982C1173.58 307.236 1172.16 310.427 1170.7 313.43L1169.91 314.986C1168.99 316.825 1168.03 318.735 1167.36 320.614C1166.02 324.442 1165.9 328.45 1167.01 332.53C1170.76 346.316 1187.27 358.531 1212.35 366.045C1229.74 371.303 1249.65 375.964 1275.01 380.727C1318.73 388.925 1368.08 395.394 1422.12 400H1412.97C1362.2 395.441 1315.7 389.224 1274.21 381.443C1248.73 376.656 1228.7 371.971 1211.21 366.681C1185.72 359.034 1168.92 346.615 1165.11 332.616C1163.98 328.474 1164.1 324.395 1165.46 320.504C1166.13 318.602 1167.11 316.684 1168.03 314.821L1168.82 313.273C1170.26 310.325 1171.64 307.181 1171.28 304.022C1170.91 301.003 1168.95 297.961 1167.05 295.022C1166.83 294.678 1166.61 294.333 1166.39 293.987L1165.95 293.295C1163.13 288.791 1160.97 284.178 1165.32 279.663C1170.26 274.523 1181.53 271.489 1192.42 268.542C1194.16 268.078 1195.89 267.614 1197.56 267.142C1200.73 266.254 1203.88 265.295 1206.95 264.289C1237.61 254.181 1258.66 239.208 1263.21 224.25C1263.61 222.93 1263.9 221.578 1264.19 220.273C1264.44 219.079 1264.7 217.837 1265.07 216.618C1265.61 214.771 1266.24 213.262 1267.12 211.871C1270.73 206.055 1278.99 200.946 1286.44 196.622C1302.22 187.466 1320.04 178.788 1339.41 170.81C1352.08 165.607 1369.09 159.767 1388.43 160.875ZM768.346 395.229C771.898 396.518 774.067 398.239 775.622 400H773.568C772.128 398.436 770.131 396.935 767.059 395.818C764.064 394.726 759.514 394.207 755.52 394.49C753.466 394.639 750.682 395.064 749.107 396.251C747.706 397.296 747.706 398.569 747.898 399.686L747.955 400H746.035L745.978 399.741C745.786 398.514 745.786 397.092 747.418 395.874C748.934 394.734 751.699 393.964 755.194 393.72C759.763 393.39 764.909 393.987 768.346 395.229ZM1357.04 131.479C1367.46 132.163 1376.58 134.466 1385.41 136.698C1390.43 137.963 1395.63 139.276 1400.99 140.274C1413.14 142.53 1426.87 143.182 1440 142.318V143.119C1426.58 143.976 1412.58 143.292 1400.2 140.989C1394.73 139.968 1389.47 138.647 1384.4 137.366L1383.47 137.132L1381.6 136.663C1373.8 134.714 1365.7 132.846 1356.75 132.257C1344.54 131.447 1324.74 132.045 1293.79 146.413C1269.64 157.629 1246.98 169.592 1226.46 181.964C1216.3 188.087 1206.07 194.689 1202.11 202.148C1200.23 205.685 1199.83 209.379 1199.44 212.956C1199.23 214.826 1199.02 216.768 1198.6 218.678C1193.59 241.354 1156.97 262.859 1103.06 274.806C1100.79 275.309 1098.47 275.804 1096.15 276.307C1095.58 276.428 1095.02 276.549 1094.45 276.67L1092.76 277.035C1077.77 280.266 1062.99 283.784 1057.09 289.96C1050.85 296.484 1056.77 303.126 1063.01 310.16C1066.64 314.24 1070.38 318.46 1071.61 322.697C1073.15 328.081 1070.52 333.497 1067.96 338.731C1066.94 340.838 1065.89 343.015 1065.12 345.153C1057.96 365.149 1076.58 386.182 1112.29 400H1109.49C1074.32 385.993 1056.06 365.007 1063.22 345.043C1063.99 342.881 1065.06 340.696 1066.08 338.574C1068.61 333.402 1071.21 328.05 1069.69 322.791C1068.5 318.649 1064.79 314.467 1061.2 310.427C1055.12 303.566 1048.82 296.476 1055.29 289.677C1061.21 283.476 1075.45 279.909 1090.15 276.706L1091.85 276.337C1092.98 276.093 1094.11 275.85 1095.24 275.608C1097.57 275.112 1099.89 274.609 1102.16 274.114C1155.49 262.293 1191.72 241.024 1196.7 218.607C1197.1 216.721 1197.31 214.787 1197.52 212.916C1197.93 209.309 1198.33 205.583 1200.23 201.983C1204.26 194.382 1214.61 187.709 1224.86 181.523C1245.45 169.12 1268.16 157.134 1292.35 145.894C1323.94 131.227 1344.4 130.646 1357.04 131.479ZM949.958 304.069C950.746 305.751 949.939 307.433 949.152 309.06C948.634 310.121 948.115 311.213 948.038 312.275C947.866 315.481 951.61 318.303 955.584 321.29C958.157 323.224 960.826 325.22 962.323 327.35C965.954 332.44 962.783 337.635 958.602 342.723L957.984 343.467C957.672 343.838 957.356 344.209 957.039 344.579L956.402 345.319C956.296 345.442 956.189 345.565 956.083 345.687C955.181 346.741 954.298 347.778 953.453 348.816C940.032 365.314 941.549 383.793 956.986 400H954.912C939.59 383.691 938.15 365.133 951.629 348.564C952.474 347.527 953.376 346.481 954.278 345.428C959.366 339.517 964.646 333.41 960.48 327.57C959.04 325.527 956.429 323.561 953.894 321.659C949.978 318.72 945.926 315.67 946.118 312.259C946.195 311.127 946.733 309.995 947.27 308.91C948.058 307.283 948.806 305.751 948.077 304.218C946.118 300.115 933.696 298.017 923.789 298.716C914.074 299.392 905.722 301.907 897.638 304.328L896.045 304.808C844.358 320.26 783.571 330.478 720.25 334.338C713.242 334.77 706.061 335.124 699.11 335.477C678.662 336.499 657.523 337.552 637.997 340.508C625.882 342.347 604.435 346.67 597.062 354.97C593.317 359.177 593.708 363.778 594.587 368.304L594.775 369.239L594.97 370.171C595.162 371.146 595.373 372.121 595.526 373.079C597.082 382.071 595.296 391.189 590.342 400H588.365C593.357 391.213 595.162 382.103 593.626 373.135C593.453 372.176 593.261 371.209 593.05 370.242L592.855 369.294C591.857 364.388 591.109 359.355 595.258 354.703C602.899 346.104 624.902 341.655 637.344 339.777C657.062 336.782 678.317 335.721 698.88 334.691C705.811 334.345 712.973 333.992 719.962 333.559C782.976 329.716 843.475 319.553 894.912 304.171L896.506 303.691C904.762 301.216 913.306 298.653 923.482 297.938C934.464 297.175 947.75 299.447 949.958 304.069ZM470.918 7L440.986 34.2899C437.472 37.4732 433.517 41.0888 433.69 44.7123C433.882 49.2161 440.006 53.1225 446.496 57.249C449.107 58.9074 451.795 60.6209 454.061 62.3737C460.205 67.129 463.296 72.3245 465.312 76.3252C472.704 91.0941 472.954 106.736 465.984 121.544C465.312 122.966 464.582 124.389 463.853 125.812C461.242 130.834 458.573 136.03 459.072 141.147C459.437 144.723 461.357 148.346 463.238 151.844C465.158 155.436 467.136 159.146 467.52 162.927C467.654 164.216 467.597 165.528 467.539 166.794C467.424 170.016 467.29 173.066 469.939 175.849C474.106 180.219 483.917 182.899 494.285 185.744C502.368 187.953 510.72 190.24 516.634 193.447C520.301 195.428 522.874 197.676 525.35 199.853C528.48 202.596 531.437 205.182 536.314 207.163C546.01 211.108 561.101 211.816 575.731 212.193C610.829 213.113 646.426 213.466 681.542 213.239C702.259 213.113 722.342 212.728 740.333 209.497C744.998 208.656 749.606 207.595 754.061 206.581C761.203 204.946 768.576 203.256 776.717 202.305C796.166 200.042 817.114 202.368 833.952 204.231C877.69 209.081 922.061 215.133 941.894 230.821C948.211 235.82 951.456 241.527 954.605 247.037C959.616 255.793 964.339 264.061 980.294 269.217C984.634 270.617 989.818 271.756 994.829 272.857C1004.2 274.916 1013.89 277.046 1019.19 281.015C1025.24 285.543 1023.32 290.66 1021.44 295.603C1020.63 297.773 1019.79 300.013 1019.65 302.127C1019.4 306.6 1022.32 310.891 1025.43 315.426C1027.53 318.508 1029.7 321.691 1030.77 324.937C1033.69 333.709 1028.47 342.426 1023.42 350.844C1019.52 357.375 1015.47 364.127 1015.32 370.816C1015.07 381.537 1025.22 392.093 1042.69 400H1035.11C1018.71 391.857 1009.31 381.395 1009.56 370.792C1009.71 363.836 1013.84 356.943 1017.83 350.285C1022.98 341.695 1027.83 333.583 1025.07 325.251C1024.05 322.17 1021.92 319.066 1019.88 316.063C1016.81 311.559 1013.63 306.898 1013.89 302.072C1014.03 299.801 1014.91 297.482 1015.76 295.242C1017.56 290.479 1019.25 285.975 1014.14 282.147C1009.65 278.791 1001.13 276.92 992.102 274.932C986.88 273.784 981.446 272.597 976.742 271.065C960.875 265.946 955.125 258.064 950.469 250.128L949.973 249.278C949.646 248.711 949.322 248.144 948.998 247.579C945.926 242.203 942.758 236.646 936.768 231.906C919.323 218.105 880.854 212.081 841.362 207.519L838.813 207.226C837.112 207.032 835.411 206.841 833.711 206.652L832.435 206.51C816.288 204.718 796.205 202.494 778.31 204.577C770.803 205.449 764.045 206.998 756.883 208.64C752.294 209.686 747.571 210.77 742.637 211.651C724.548 214.907 704.849 215.42 684.543 215.576L681.638 215.597C646.368 215.824 610.598 215.471 575.366 214.551C559.642 214.135 543.36 213.356 532.262 208.837C526.656 206.558 523.354 203.657 520.147 200.851C517.67 198.69 515.347 196.654 512.045 194.87C506.707 191.977 498.758 189.808 491.098 187.701C480.422 184.785 469.402 181.759 464.582 176.705C461.51 173.491 461.664 170.064 461.779 166.755C461.837 165.52 461.894 164.247 461.76 163.021C461.395 159.453 459.475 155.837 457.613 152.347C455.693 148.747 453.696 145.029 453.312 141.241C452.774 135.833 455.539 130.488 458.208 125.324C458.938 123.917 459.667 122.503 460.339 121.096C467.155 106.586 466.925 91.2671 459.667 76.7968C457.728 72.9533 454.771 67.97 448.973 63.4741C446.803 61.8156 444.192 60.1415 441.658 58.5223C435.014 54.3015 428.16 49.9313 427.93 44.7594C427.738 40.6015 431.981 36.7344 435.725 33.3231L464.602 7H470.918ZM208.378 374.203C213.006 375.753 215.586 377.962 217.936 380.166L218.573 380.767C220.243 382.346 221.971 383.973 224.371 385.357C229.604 388.357 237.914 390.159 246.164 391.831L247.93 392.187C249.274 392.454 250.598 392.722 251.904 392.997C256.032 393.846 260.678 394.907 263.309 396.675C264.864 397.713 265.574 398.892 265.978 400H264.038C263.654 399.01 263.002 397.972 261.677 397.084C259.296 395.496 254.938 394.498 251.04 393.696C249.734 393.429 248.41 393.162 247.085 392.895C238.042 391.071 228.691 389.193 222.816 385.813C220.282 384.359 218.515 382.692 216.806 381.073C214.253 378.66 211.853 376.381 207.168 374.817C201.677 372.985 193.152 372.404 184.378 373.268C177.619 373.928 171.283 375.288 165.158 376.601C164.064 376.837 162.989 377.065 161.914 377.292C111.072 387.982 53.3184 390.992 0 392.863V392.077C53.1072 390.206 110.554 387.204 161.03 376.593C162.106 376.365 163.181 376.137 164.256 375.901C170.496 374.573 176.947 373.19 183.936 372.506C193.421 371.57 202.33 372.191 208.378 374.203ZM298.176 241.739C324.691 243.484 340.109 250.715 343.642 257.113C347.251 263.645 340.992 270.145 334.944 276.433L334.003 277.415C314.554 297.741 308.736 314.994 316.224 330.148C327.187 352.321 365.798 365.047 399.206 367.829C402.355 368.096 405.638 368.293 408.826 368.481C416.41 368.945 424.243 369.425 431.309 370.808C447.533 374.007 457.709 382.095 456.038 390.482C455.405 393.633 453.254 396.825 449.683 400H447.571C450.95 397.084 453.427 393.861 454.118 390.419C455.731 382.346 446.016 374.573 430.464 371.515C423.686 370.179 415.987 369.715 408.538 369.26C405.331 369.071 402.029 368.867 398.822 368.599C378.067 366.87 358.944 362.091 343.488 354.774C329.146 347.975 318.797 339.289 314.342 330.305C306.778 314.994 312.614 297.6 332.218 277.125L333.158 276.142C333.53 275.756 333.903 275.369 334.274 274.981L335.013 274.205C340.282 268.635 344.875 262.926 341.779 257.286C338.381 251.147 323.501 244.199 297.869 242.509C283.699 241.582 269.184 242.643 255.149 243.68C250.387 244.026 245.491 244.388 240.672 244.663C220.224 245.842 199.776 247.681 179.885 250.149C139.757 255.124 102.125 262.536 68.0064 272.181C66.2784 272.66 64.5696 273.155 62.8416 273.651L60.6151 274.289C49.4543 277.485 37.842 280.663 24.576 282.1C16.5504 282.972 8.3712 283.161 0 283.232V282.446C8.2176 282.375 16.2624 282.186 24.096 281.345C37.92 279.844 50.0352 276.37 61.7472 273.006C63.4752 272.511 65.184 272.016 66.912 271.528C101.203 261.845 139.008 254.401 179.328 249.402C199.315 246.919 219.859 245.064 240.403 243.885C245.184 243.61 250.08 243.256 254.803 242.902C268.992 241.857 283.68 240.78 298.176 241.739ZM1404.12 175.573C1410.53 175.888 1416.29 177.012 1421.86 178.096C1425.04 178.725 1428.35 179.37 1431.71 179.841C1434.39 180.227 1437.18 180.502 1440 180.667V181.461C1436.97 181.288 1433.97 180.997 1431.09 180.588C1427.62 180.093 1424.28 179.441 1421.03 178.812C1415.35 177.703 1409.99 176.658 1403.88 176.352C1388.62 175.589 1374.7 179.959 1364.26 183.85C1347.48 190.091 1332.17 197.086 1318.79 204.624C1312.17 208.357 1305.6 212.445 1302.41 217.019C1301.63 218.159 1300.99 219.377 1300.42 220.855C1300.01 221.932 1299.69 223.009 1299.36 224.093C1299.05 225.123 1298.75 226.153 1298.36 227.182C1293.64 239.892 1277.34 252.46 1253.64 261.664C1251.26 262.591 1248.84 263.472 1246.46 264.274C1245.04 264.745 1243.6 265.217 1242.14 265.688C1234.21 268.259 1226.02 270.923 1222.12 274.947C1218.22 278.964 1219.99 282.949 1221.85 287.162C1222.92 289.591 1224.04 292.106 1223.98 294.637C1223.92 297.144 1222.73 299.636 1221.29 302.402L1221.04 302.874C1220.1 304.666 1219.12 306.521 1218.49 308.345C1217.41 311.465 1217.3 314.782 1218.16 318.217C1221.04 329.794 1234.12 340.02 1254.01 346.285C1267.8 350.616 1284.58 354.467 1306.81 358.397C1346.5 365.392 1391.19 370.8 1440 374.486V375.288C1390.92 371.586 1345.96 366.155 1306.06 359.112C1283.65 355.159 1266.74 351.284 1252.84 346.906C1232.52 340.516 1219.18 330.085 1216.24 318.295C1215.38 314.805 1215.49 311.418 1216.59 308.234C1217.24 306.38 1218.22 304.517 1219.16 302.709L1219.41 302.237C1220.83 299.518 1222 297.065 1222.06 294.629C1222.12 292.169 1221.02 289.693 1219.95 287.303L1219.63 286.571C1217.92 282.658 1216.47 278.637 1220.33 274.657C1224.42 270.436 1232.83 267.708 1240.95 265.075C1242.41 264.604 1243.83 264.14 1245.24 263.668C1247.6 262.874 1249.98 262.01 1252.34 261.098C1275.72 252.012 1291.8 239.609 1296.46 227.064C1296.84 226.042 1297.15 225.021 1297.46 223.999C1297.79 222.906 1298.11 221.822 1298.53 220.737C1299.11 219.22 1299.74 217.97 1300.57 216.807C1303.83 212.115 1310.52 207.957 1317.24 204.168C1330.69 196.575 1346.09 189.548 1362.95 183.268C1373.7 179.268 1388.12 174.772 1404.12 175.573ZM133.69 276.449C172.109 269.838 252.058 256.091 281.549 262.725C287.674 264.101 291.398 266.294 292.608 269.241C298.406 283.271 256.262 300.571 243.206 305.539C216.902 315.544 185.376 323.058 152.659 330.502C113.107 339.509 68.2752 349.712 19.4496 350.388C18.0288 350.411 16.608 350.419 15.2256 350.419C9.7344 350.419 4.6656 350.262 0 349.94V349.146C5.7984 349.555 12.2496 349.704 19.392 349.602C67.7568 348.934 112.378 338.778 151.738 329.818C184.339 322.398 215.75 314.915 241.901 304.965C254.784 300.06 296.352 283.02 290.707 269.375C289.594 266.679 286.195 264.674 280.627 263.417C251.962 256.964 172.57 270.617 134.438 277.172C126.336 278.563 119.962 279.663 116.198 280.206C77.6064 285.747 34.2336 291.972 0 303.118V302.112C34.2912 291.131 77.2608 284.953 115.565 279.459C119.27 278.932 125.626 277.832 133.69 276.449ZM1419.8 190.264C1424.85 190.46 1429.46 191.191 1433.91 191.891C1435.91 192.205 1437.95 192.527 1440 192.795V193.62C1437.7 193.329 1435.43 192.968 1433.22 192.63C1428.88 191.938 1424.39 191.238 1419.61 191.05C1407.59 190.586 1396.74 193.463 1387.7 196.34C1373.53 200.843 1360.7 206.18 1349.55 212.185C1344.79 214.763 1338.91 218.206 1335.84 221.987C1335.09 222.891 1334.48 223.85 1333.88 225.021C1333.38 225.987 1332.96 226.954 1332.54 227.929C1332.25 228.628 1331.94 229.328 1331.62 230.027C1326.85 240.096 1315.03 250.44 1299.19 258.418C1297.56 259.243 1295.9 260.021 1294.31 260.737C1293.16 261.247 1291.99 261.758 1290.8 262.269C1285.57 264.501 1280.18 266.82 1277.13 269.941C1273.98 273.14 1274.36 276.244 1274.76 279.522C1275 281.4 1275.24 283.342 1274.76 285.299C1274.32 287.091 1273.32 288.844 1272.25 290.699L1271.87 291.375C1271.02 292.868 1270.16 294.472 1269.62 296.075C1268.81 298.48 1268.7 301.113 1269.31 303.904C1271.37 313.469 1280.72 321.502 1295.67 326.517C1309 330.989 1324.86 333.85 1338.62 336.059C1369.42 341.003 1403.42 344.87 1440 347.582V348.383C1403.17 345.656 1368.92 341.765 1337.91 336.79C1324.01 334.558 1307.98 331.665 1294.46 327.122C1279.1 321.974 1269.5 313.752 1267.39 303.974C1266.78 301.129 1266.89 298.433 1267.72 295.965C1268.28 294.33 1269.14 292.711 1270 291.194L1270.39 290.518C1271.44 288.687 1272.44 286.957 1272.86 285.22C1273.31 283.318 1273.08 281.408 1272.84 279.561C1272.46 276.339 1272.04 273.006 1275.34 269.65C1278.53 266.388 1284.06 264.014 1289.41 261.727C1290.59 261.216 1291.76 260.713 1292.89 260.21C1294.46 259.503 1296.08 258.732 1297.69 257.923C1313.34 250.039 1325.03 239.821 1329.72 229.878C1330.06 229.186 1330.35 228.487 1330.66 227.795C1331.08 226.813 1331.5 225.83 1332 224.856C1332.61 223.661 1333.25 222.671 1334.02 221.743C1337.16 217.844 1343.16 214.331 1348.03 211.706C1359.26 205.646 1372.22 200.27 1386.53 195.719C1395.86 192.748 1407.09 189.769 1419.8 190.264ZM89.3184 297.081C99.8208 295.525 116.064 295.25 126.95 298.331C133.613 300.217 137.203 303.102 137.299 306.67C137.434 311.033 131.194 315.356 118.234 319.875C100.339 326.124 79.008 330.942 54.7968 334.212C41.7216 335.98 30.4512 336.845 20.3136 336.845C15.6864 336.845 11.2704 336.664 7.0464 336.303C4.9152 336.13 2.208 335.831 0 335.21V334.196C2.016 334.998 5.1072 335.336 7.4304 335.54C20.6208 336.648 35.4816 335.988 54.2016 333.465C78.1632 330.227 99.2832 325.456 116.986 319.278C129.485 314.915 135.494 310.797 135.379 306.678C135.283 303.33 132.077 300.736 125.856 298.975C117.005 296.468 102.259 295.996 89.9904 297.82L84.96 298.567C84.4749 298.638 83.9894 298.71 83.5036 298.782L80.5856 299.215C60.14 302.254 39.36 305.546 22.6944 311.379C11.5392 315.285 3.6864 320.025 0 324.937V322.61C4.2624 318.311 11.5968 314.224 21.4464 310.781C30.5088 307.614 40.7232 305.185 51.4176 303.149C62.1312 301.105 73.3056 299.455 84.3072 297.828L89.3184 297.081ZM787.411 224.573C795.13 223.857 803.059 224.015 810.739 224.164C825.062 224.447 839.866 224.73 853.517 227.009C888.25 232.786 902.822 249.717 901.69 262.992C901.248 268.086 899.098 272.306 895.104 275.891C890.534 280.009 882.97 283.868 871.277 288.026C831.341 302.261 777.523 308.777 730.195 313.768C673.133 319.781 613.478 324.937 553.901 324.937C525.178 324.937 496.454 323.742 468.077 320.858C461.184 320.158 453.37 319.238 447.61 317.14C440.64 314.585 436.973 310.262 437.818 305.578C438.586 301.381 442.406 297.458 446.112 293.662L470.803 268.337C477.658 261.302 484.762 254.024 496.55 247.94C509.299 241.369 528.019 236.119 550.733 232.747C582.835 227.984 610.79 227.835 647.174 232.228C686.573 236.984 727.584 235.789 762.643 228.88C764.352 228.542 766.061 228.188 767.789 227.835C774.01 226.546 780.461 225.217 787.411 224.573ZM810.643 224.95C803.098 224.801 795.283 224.651 787.834 225.343C781.114 225.964 774.778 227.269 768.653 228.534C766.925 228.896 765.197 229.249 763.469 229.587C727.987 236.583 686.496 237.785 646.618 232.983C629.299 230.892 613.92 229.839 599.078 229.839C583.123 229.839 567.802 231.049 551.386 233.486C529.018 236.803 510.566 241.975 498.048 248.428C486.432 254.417 479.386 261.64 472.57 268.628L447.898 293.953C444.25 297.694 440.486 301.561 439.738 305.633C438.931 310.082 442.349 314.161 448.896 316.55C454.31 318.531 461.568 319.388 468.538 320.095C555.379 328.906 645.389 321.895 729.715 313.006C776.832 308.038 830.4 301.561 870.029 287.437C881.491 283.35 888.902 279.577 893.357 275.568C897.235 272.078 899.347 267.952 899.77 262.969C900.883 249.953 886.675 233.376 852.806 227.732C839.443 225.508 824.813 225.225 810.643 224.95ZM1435.45 204.962C1437 204.993 1438.52 205.072 1440 205.174V205.976C1438.48 205.866 1436.93 205.779 1435.35 205.748C1426.06 205.583 1417.52 207.304 1411.1 208.837C1399.64 211.572 1389.27 215.251 1380.33 219.747C1375.08 222.38 1371.55 224.675 1369.25 226.962C1368.56 227.638 1367.94 228.369 1367.33 229.186C1366.6 230.153 1365.96 231.144 1365.35 232.103L1364.85 232.881C1359.82 240.662 1352.68 248.569 1344.75 255.132C1343.9 255.824 1343.06 256.5 1342.2 257.168C1341.2 257.923 1340.14 258.669 1339.07 259.432C1336.65 261.145 1334.13 262.914 1332.13 264.934C1329.73 267.331 1328.72 269.563 1327.64 271.921C1327.03 273.242 1326.41 274.609 1325.53 275.993C1325.07 276.716 1324.53 277.439 1323.99 278.178C1323.48 278.893 1322.94 279.616 1322.46 280.355C1321.65 281.581 1321.09 282.713 1320.75 283.806C1320.19 285.503 1320.1 287.406 1320.44 289.598C1321.65 297.254 1327.35 303.023 1337.36 306.757C1346.53 310.184 1358.67 312.125 1370.4 313.721C1392.19 316.676 1415.5 319.042 1440 320.779V321.565C1415.29 319.828 1391.77 317.446 1369.79 314.467C1357.86 312.848 1345.52 310.86 1336.07 307.338C1325.66 303.463 1319.77 297.513 1318.54 289.646C1318.18 287.398 1318.27 285.456 1318.85 283.703C1319.21 282.572 1319.79 281.408 1320.6 280.151C1321.09 279.404 1321.61 278.673 1322.15 277.958C1322.69 277.227 1323.21 276.504 1323.67 275.796C1324.53 274.437 1325.15 273.085 1325.76 271.78C1326.8 269.485 1327.89 267.111 1330.35 264.635C1332.4 262.568 1334.96 260.776 1337.4 259.039C1338.47 258.284 1339.53 257.537 1340.51 256.791C1341.37 256.138 1342.2 255.47 1343.02 254.786C1350.91 248.263 1358 240.418 1362.99 232.684L1363.49 231.906C1364.1 230.939 1364.76 229.933 1365.48 228.959C1366.12 228.11 1366.77 227.363 1367.48 226.663C1369.86 224.298 1373.47 221.947 1378.83 219.251C1387.93 214.677 1398.47 210.943 1410.12 208.153C1416.77 206.565 1425.64 204.765 1435.45 204.962ZM767.654 238.32C773.414 237.864 779.405 238.013 784.704 238.147C796.627 238.453 806.477 238.807 815.904 240.403C842.419 244.914 852.288 256.924 850.291 266.828C849.542 270.554 847.642 273.603 844.493 276.15C840.672 279.247 834.605 282.116 825.446 285.181C795.091 295.344 754.714 299.793 715.968 303.487C676.07 307.346 629.971 311.151 583.68 311.151C576.749 311.151 569.837 311.064 562.925 310.883C547.642 310.475 534.086 309.641 521.472 308.321C516.442 307.794 510.701 307.103 506.285 305.523C501.043 303.644 498.182 300.595 498.413 297.152C498.605 294.236 500.755 291.485 503.347 288.435C509.568 281.149 515.059 275.254 520.589 269.893C527.251 263.432 535.046 258.418 544.397 254.551C549.926 252.263 556.531 250.204 563.981 248.443C571.43 246.675 579.744 245.189 588.691 244.05C614.266 240.788 637.114 240.623 665.107 243.5C693.984 246.471 723.917 245.63 749.395 241.142C750.624 240.929 751.853 240.701 753.062 240.473C757.709 239.625 762.509 238.736 767.654 238.32ZM784.589 238.933C779.405 238.799 773.549 238.65 768.019 239.098C763.104 239.491 758.4 240.356 753.85 241.197L750.163 241.865C724.301 246.423 693.926 247.272 664.646 244.262C651.629 242.926 639.744 242.258 628.166 242.258C615.187 242.258 602.592 243.099 589.267 244.804C571.661 247.052 556.627 250.613 545.76 255.109C541.171 257.003 536.966 259.18 533.069 261.688C529.19 264.195 525.638 267.017 522.355 270.2C516.845 275.545 511.373 281.424 505.152 288.695C502.618 291.673 500.506 294.369 500.333 297.168C500.122 300.382 502.752 303.212 507.533 304.933C511.642 306.395 517.133 307.056 521.952 307.559C534.451 308.863 547.891 309.696 563.04 310.097C615.936 311.489 669.811 307.15 715.526 302.717C754.061 299.054 794.189 294.629 824.218 284.576C833.184 281.581 839.078 278.791 842.784 275.796C845.818 273.344 847.642 270.389 848.371 266.765C850.31 257.145 840.787 245.488 815.174 241.126C806.016 239.577 796.32 239.232 784.589 238.933ZM224.947 276.912C235.853 276.661 243.974 277.966 247.238 280.473C250.406 282.894 248.698 286.116 242.419 289.543C230.419 296.107 210.413 300.162 190.598 300.162C189.312 300.162 188.006 300.147 186.72 300.107C184.474 300.044 182.112 299.934 179.962 299.502C174.182 298.339 172.493 295.415 172.781 293.269C173.357 289.088 179.923 284.867 190.31 281.982C195.59 280.52 201.466 279.318 207.418 278.445C213.35 277.573 219.379 277.038 224.947 276.912ZM227.52 277.667C226.714 277.667 225.888 277.683 225.043 277.698C214.253 277.942 201.677 279.781 191.405 282.634C186.451 284.002 182.419 285.692 179.539 287.523C176.678 289.363 174.989 291.343 174.701 293.316C174.432 295.218 175.872 297.804 180.806 298.795C182.65 299.164 184.8 299.266 186.854 299.321C207.264 299.879 228.48 295.855 240.883 289.072C246.682 285.904 248.352 282.98 245.549 280.842C242.88 278.799 236.39 277.667 227.52 277.667ZM747.936 252.075C751.45 251.886 755.04 251.996 758.688 252.13C765.504 252.389 772.147 252.711 778.291 253.796C794.227 256.594 802.31 263.228 798.893 270.687C797.818 273.037 796.224 274.861 793.862 276.425C790.733 278.508 786.202 280.387 779.578 282.344C757.536 288.883 728.314 291.147 702.547 293.135L701.722 293.198C673.306 295.407 643.104 297.396 613.133 297.396C609.389 297.396 605.664 297.364 601.939 297.301C591.072 297.105 582.47 296.625 574.867 295.784C571.603 295.423 567.878 294.92 564.941 293.906C561.523 292.727 559.411 290.895 558.989 288.75C558.605 286.8 559.603 284.882 560.563 283.24C563.194 278.822 566.496 274.861 570.374 271.45C575.002 267.402 582.586 263.841 592.301 261.145C597.005 259.84 602.266 258.709 608.006 257.742C613.747 256.775 619.987 255.973 626.688 255.352C645.466 253.615 663.36 253.435 683.021 254.771C701.203 256.013 720.096 255.525 736.224 253.395C736.934 253.301 737.645 253.207 738.355 253.104C741.427 252.688 744.595 252.248 747.936 252.075ZM758.515 252.916C754.963 252.782 751.507 252.672 748.186 252.853C745.018 253.018 742.08 253.427 738.97 253.851C738.24 253.953 737.53 254.048 736.8 254.142C720.403 256.311 701.184 256.807 682.694 255.549C674.208 254.967 666.048 254.676 658.003 254.676C647.674 254.676 637.517 255.156 627.11 256.123C613.958 257.341 602.611 259.243 593.376 261.798C588.653 263.102 584.448 264.619 580.877 266.294C577.306 267.976 574.349 269.823 572.122 271.78C568.282 275.144 565.018 279.066 562.445 283.42C561.504 285.008 560.544 286.847 560.909 288.687C561.12 289.803 562.099 291.894 566.17 293.308C568.838 294.22 572.314 294.692 575.366 295.03C582.816 295.855 591.302 296.327 602.016 296.515C635.443 297.097 669.523 294.896 701.376 292.428L702.202 292.365C727.757 290.384 756.749 288.144 778.445 281.707C784.858 279.813 789.235 278.005 792.23 276.016C794.458 274.531 795.974 272.794 796.992 270.546C800.237 263.456 792.595 257.168 777.523 254.519C771.629 253.482 765.178 253.167 758.515 252.916ZM1440 220.069V220.863C1438.1 220.981 1436.22 221.138 1434.37 221.342C1420.61 222.875 1408.34 227.269 1400.72 233.392C1394.65 238.265 1391.33 244.105 1390.29 251.768L1390.18 252.546C1389.87 255.03 1389.54 257.6 1387.12 259.935C1385.43 261.57 1382.8 263.016 1380.25 264.407C1377.29 266.018 1374.51 267.535 1373.03 269.343C1371.44 271.285 1371.51 273.415 1371.59 275.301C1371.76 279.569 1372.47 283.994 1379.08 287.02C1384.74 289.614 1393.57 290.597 1402.14 291.383C1414.62 292.53 1427.27 293.481 1440 294.244V295.038C1427.14 294.267 1414.35 293.301 1401.72 292.145C1392.84 291.336 1383.69 290.314 1377.64 287.539C1370.61 284.317 1369.84 279.734 1369.67 275.309C1369.59 273.462 1369.52 271.159 1371.21 269.092C1372.8 267.166 1375.8 265.523 1378.71 263.936C1381.19 262.576 1383.76 261.177 1385.36 259.628C1387.64 257.42 1387.95 254.92 1388.26 252.507L1388.37 251.729C1389.43 243.948 1392.81 238.005 1399.01 233.03C1406.88 226.711 1419.59 222.175 1433.88 220.588C1435.89 220.36 1437.95 220.195 1440 220.069ZM701.357 266.026C713.222 265.586 729.485 264.989 740.698 267.19C745.978 268.227 748.973 269.548 749.606 271.104C750.317 272.817 748.128 274.712 743.117 276.739C730.138 282.006 708.288 282.477 690.739 282.855L687.398 282.925C672.019 283.271 656.41 283.538 640.992 283.719C639.955 283.727 638.918 283.735 637.901 283.735C632.621 283.735 627.648 283.507 623.635 282.304C616.57 280.182 616.147 275.773 620.198 272.975C625.325 269.438 635.078 268.172 640.435 267.732C652.339 266.749 665.338 266.616 677.914 266.482C685.517 266.404 693.37 266.317 700.742 266.05L701.357 266.026ZM718.886 266.396C712.8 266.396 706.733 266.616 701.53 266.812L700.915 266.828C693.485 267.103 685.594 267.19 677.971 267.268C665.472 267.402 652.55 267.535 640.8 268.502C636.518 268.856 632.64 269.477 629.414 270.31C626.189 271.143 623.578 272.181 621.85 273.375C618.24 275.875 618.547 279.805 624.768 281.668C629.069 282.957 634.867 282.996 640.934 282.933C656.333 282.752 671.923 282.485 687.283 282.139L690.643 282.069C707.866 281.699 729.312 281.243 741.773 276.181C746.304 274.342 748.32 272.676 747.725 271.23C747.187 269.941 744.538 268.824 739.853 267.905C733.92 266.734 726.394 266.396 718.886 266.396ZM947.136 176.155C969.408 176.155 990.259 182.412 1008.65 189.203C1028.08 196.37 1054.71 199.22 1081.4 201.543L1084.17 201.782C1086.47 201.979 1088.77 202.174 1091.06 202.368C1099.66 203.099 1107.78 203.783 1115.69 204.6C1129.84 206.055 1147.45 207.862 1158.72 212.94C1164.86 215.707 1168.92 219.354 1170.43 223.48C1174.16 233.604 1161.33 244.686 1137.77 251.713C1119.26 257.223 1094.78 260.477 1062.89 261.664C1058.09 261.845 1052.72 261.986 1047.09 261.986C1031.17 261.986 1013.11 260.839 999.494 256.107C985.237 251.145 979.608 243.658 974.867 236.164L974.323 235.3C974.053 234.868 973.785 234.436 973.517 234.005C972.307 232.063 971.059 230.059 969.696 228.149C964.032 220.179 952.435 209.246 929.338 202.439C927.648 201.944 925.862 201.449 924.077 200.946L922.892 200.616C921.905 200.34 920.918 200.064 919.941 199.783L918.773 199.445C910.641 197.067 903.446 194.406 902.592 190.445C901.843 186.915 907.085 183.158 916.627 180.384C927.014 177.397 937.21 176.155 947.136 176.155ZM1007.37 189.784C981.35 180.187 950.342 171.651 917.722 181.028C908.755 183.638 903.821 187.135 904.512 190.374C905.453 194.815 915.475 197.597 925.152 200.293C926.957 200.796 928.742 201.299 930.451 201.802C954.01 208.743 965.798 219.841 971.539 227.929C972.902 229.855 974.17 231.867 975.36 233.808C975.448 233.95 975.537 234.092 975.625 234.234L976.425 235.512C981.167 243.045 986.639 250.606 1000.74 255.51C1014.34 260.241 1034.02 261.947 1062.72 260.878C1094.25 259.707 1118.44 256.5 1136.64 251.077C1159.62 244.223 1172.14 233.439 1168.53 223.598C1167.07 219.621 1163.17 216.123 1157.3 213.466C1146.41 208.57 1129.11 206.793 1115.23 205.363C1107.34 204.553 1099.24 203.862 1090.66 203.138L1087.88 202.903C1058.7 200.425 1028.84 197.707 1007.37 189.784ZM1014.59 211.918C1018.08 211.478 1021.65 211.588 1025.61 211.761C1036.26 212.217 1046.92 213.011 1057.23 213.773C1066.25 214.441 1075.56 215.133 1084.82 215.597C1087.56 215.73 1090.52 215.801 1093.67 215.88C1102.56 216.084 1112.62 216.328 1119.84 218.285C1130.09 221.075 1134.47 224.463 1132.8 228.353C1129.57 235.875 1103.88 243.044 1087.62 244.671C1080.33 245.402 1072.09 246.078 1063.6 246.078C1060.47 246.078 1057.32 245.991 1054.16 245.771C1041.18 244.867 1028.41 241.762 1018.21 237.031C1008.52 232.519 1002.68 227.221 1001.78 222.112C1001.05 218.065 1004.76 213.152 1014.59 211.918ZM1020.17 212.398C1018.43 212.398 1016.76 212.468 1015.14 212.673C1006.33 213.781 1003.03 218.308 1003.68 222.05C1004.56 226.994 1010.25 232.134 1019.65 236.512C1029.56 241.11 1041.93 244.12 1054.48 244.993C1065.81 245.779 1077.37 244.883 1087.16 243.908C1102.94 242.328 1127.83 235.435 1130.9 228.22C1132.44 224.659 1128.35 221.547 1118.78 218.945C1111.99 217.098 1102.2 216.862 1093.56 216.658C1090.39 216.587 1087.39 216.516 1084.59 216.375C1075.28 215.911 1065.93 215.211 1056.88 214.543C1046.61 213.781 1035.99 212.995 1025.41 212.539C1023.57 212.46 1021.84 212.398 1020.17 212.398ZM415.757 189.399C437.472 186.09 476.909 191.278 492.749 197.676C507.974 203.83 510.605 221.83 497.203 228.251C493.363 230.098 487.219 231.096 480.672 231.096C477.542 231.096 474.317 230.869 471.206 230.389C461.683 228.943 454.598 225.665 450.086 223.331C448.358 222.435 446.669 221.499 445.037 220.603C441.389 218.583 437.626 216.5 433.21 214.74C429.773 213.372 425.856 212.162 422.074 210.998C418.003 209.741 413.798 208.444 410.112 206.927C403.43 204.176 397.402 199.727 400.57 195.506C402.605 192.818 408.269 190.531 415.757 189.399ZM491.405 198.234C475.93 191.985 437.53 186.923 416.429 190.13C409.498 191.183 404.256 193.282 402.413 195.742C399.475 199.625 405.178 203.783 411.475 206.377C415.066 207.847 419.213 209.128 423.226 210.37C427.066 211.557 431.021 212.775 434.554 214.182C439.085 215.982 442.886 218.096 446.573 220.132C448.205 221.028 449.875 221.955 451.584 222.843C455.962 225.107 462.816 228.275 471.878 229.658C480.749 231.01 490.579 230.224 495.744 227.74C508.666 221.547 506.093 204.176 491.405 198.234ZM434.746 7C430.848 11.9282 425.587 16.7385 420.422 21.4624C408.768 32.1048 397.766 42.1578 401.184 53.1618C402.854 58.5459 408.096 63.6942 413.146 68.6696C415.162 70.6581 417.254 72.7096 419.098 74.7532C431.29 88.2881 433.978 103.521 426.662 117.637C425.03 120.781 422.88 123.941 420.806 126.991C417.235 132.257 413.549 137.704 412.416 143.222C411.802 146.303 411.955 149.51 412.109 152.607C412.416 158.989 412.723 165.583 406.291 171.478C396.73 180.219 373.862 186.302 338.362 189.549C318.778 191.341 298.541 192.323 278.957 193.274C266.266 193.895 253.133 194.532 240.326 195.381C208.224 197.519 176.16 201.118 145.152 204.6C99.168 209.764 51.6096 215.109 3.2064 215.73C2.4768 215.738 1.7088 215.746 0.9024 215.746C0.5952 215.746 0.3072 215.746 0 215.738V214.952C1.0944 214.96 2.1504 214.96 3.1488 214.944C51.3216 214.331 98.7648 208.994 144.653 203.846C175.718 200.356 207.821 196.748 240.019 194.602C252.864 193.754 266.016 193.109 278.726 192.496C298.253 191.545 318.451 190.562 337.939 188.786C372.826 185.595 395.232 179.661 404.525 171.156C410.803 165.426 410.477 158.918 410.189 152.622C410.035 149.502 409.882 146.279 410.515 143.151C411.648 137.57 415.373 132.084 418.963 126.779C421.037 123.737 423.168 120.601 424.781 117.472C432.019 103.505 429.37 88.4296 417.293 75.0204C415.469 72.9926 413.395 70.949 411.379 68.9761C406.272 63.9457 400.973 58.7502 399.283 53.264C395.955 42.5744 406.35 32.4266 417.067 22.6101L418.139 21.6296C418.318 21.4664 418.497 21.3032 418.675 21.1401C423.725 16.5185 428.87 11.8103 432.73 7H434.746ZM396.326 7C393.158 12.3841 389.03 17.6817 382.886 22.6728C379.949 25.0466 376.55 27.3495 373.248 29.5818C369.658 32.0262 365.933 34.5414 362.842 37.1431C347.482 50.1121 347.789 66.1622 363.667 79.029C365.798 80.7504 368.237 82.4639 370.598 84.1223C375.974 87.8951 381.523 91.7937 383.866 96.1403C386.611 101.265 384.672 106.57 382.771 111.703C382.253 113.126 381.715 114.596 381.293 116.026C379.91 120.656 379.584 125.419 379.296 130.017C378.97 134.922 378.624 139.999 376.992 144.951C374.342 153.039 366.662 163.996 345.158 170.276C329.088 174.96 308.851 176.021 289.267 177.035L287.635 177.122C222.854 180.51 158.285 186.129 95.712 193.832L90.9888 194.414L87.4138 194.856C62.9602 197.876 38.0133 200.82 13.5552 200.82C9.024 200.82 4.4928 200.718 0 200.497V199.704C25.0285 200.952 50.9067 198.425 76.4188 195.378L79.5409 195.003C83.1809 194.562 86.8125 194.114 90.432 193.667L95.1744 193.078C157.824 185.367 222.49 179.731 287.386 176.344L289.018 176.257C290.597 176.175 292.182 176.093 293.768 176.008L296.147 175.879C313.206 174.942 330.296 173.646 344.045 169.631C364.992 163.516 372.48 152.779 375.091 144.849C376.704 139.936 377.05 134.882 377.376 129.993C377.664 125.379 377.99 120.601 379.373 115.932C379.814 114.485 380.352 113.016 380.87 111.585C382.733 106.523 384.672 101.296 381.984 96.3053C379.718 92.0845 374.227 88.241 368.928 84.5153C366.566 82.849 364.109 81.1277 361.958 79.3827C345.811 66.3037 345.485 49.9863 361.114 36.7973C364.243 34.172 367.987 31.6332 371.616 29.1731C374.88 26.9565 378.278 24.6614 381.158 22.3191C387.168 17.4538 391.219 12.2741 394.349 7H396.326ZM523.2 7C501.062 17.0372 483.072 27.9548 483.994 40.6172C484.416 46.245 488.774 51.7548 492.979 57.0761C494.285 58.7188 495.629 60.4166 496.838 62.0907C506.765 75.8536 509.165 90.6225 503.77 104.794C502.387 108.473 500.448 112.175 498.566 115.751C495.802 121.041 492.941 126.503 491.789 131.966C490.214 139.465 491.654 150.036 507.36 157.857C511.757 160.042 517.229 161.976 522.509 163.838C531.302 166.943 540.403 170.15 544.762 174.63C546.374 176.273 547.315 178.073 548.218 179.802C549.888 182.978 551.462 185.972 556.762 188.094C560.794 189.714 566.342 190.507 572.621 191.309C612.346 196.34 654.067 200.097 690.259 193.518C700.07 191.726 709.286 189.179 718.195 186.719L719.262 186.423L721.401 185.832C733.911 182.385 746.934 179.02 761.894 177.876C775.584 176.831 789.581 177.766 803.098 178.67C811.238 179.213 819.648 179.779 827.923 179.904C868.531 180.502 908.506 169.686 923.021 154.155C931.622 144.935 931.642 134.694 931.661 125.662C931.718 104.417 931.795 77.9679 968.832 59.662C975.763 56.235 983.904 53.1696 991.776 50.2064C999.206 47.4083 1006.91 44.5158 1013.53 41.3246C1033.27 31.8219 1043.56 19.3795 1043.04 7H1044.96C1045.48 19.5603 1035.01 32.1913 1014.99 41.8277C1008.29 45.0581 1000.55 47.9742 993.062 50.7881C985.248 53.7277 977.165 56.7774 970.31 60.165C933.715 78.2509 933.638 104.543 933.581 125.662C933.562 134.764 933.542 145.077 924.806 154.43C910.022 170.276 869.28 181.335 827.846 180.69C819.456 180.565 810.989 179.999 802.79 179.448C789.427 178.552 775.622 177.633 762.259 178.655C746.4 179.857 732.595 183.677 719.27 187.363C710.285 189.847 700.992 192.417 691.027 194.233C676.915 196.803 662.016 197.825 646.733 197.825C622.214 197.825 596.736 195.184 572.064 192.056C566.746 191.38 560.122 190.539 555.418 188.66C550.285 186.602 548.388 183.76 546.856 180.915L546.521 180.283C546.465 180.177 546.41 180.072 546.355 179.967C545.453 178.269 544.531 176.501 542.976 174.921C538.79 170.622 530.266 167.619 521.261 164.436C515.923 162.549 510.394 160.592 505.882 158.352C489.754 150.335 488.275 139.543 489.869 131.903C491.021 126.393 493.901 120.899 496.685 115.586C498.566 112.025 500.486 108.331 501.888 104.676C507.226 90.6147 504.845 75.9636 494.995 62.3108C493.786 60.6445 492.461 58.9546 491.155 57.3197C486.912 51.9435 482.496 46.3786 482.074 40.6408C481.133 27.9312 498.739 17.0136 520.608 7H523.2ZM1393.48 56.6045C1410.55 58.1057 1426.94 59.2218 1440 57.0761V59.5677C1424.22 61.7135 1405.57 60.0786 1392.27 58.9074C1263.46 47.589 1156.93 48.8309 1066.58 62.7195C1019.65 69.9272 990.893 79.9801 981.062 92.6033C976.646 98.2782 976.243 104.401 975.859 110.32C975.794 111.332 975.729 112.347 975.668 113.363L975.58 114.89C974.944 126.606 975.204 138.557 983.578 149.855C989.011 157.212 998.208 164.703 1011.69 172.752C1019.23 177.255 1028.68 182.231 1041.47 184.974C1052.64 187.379 1065.56 187.977 1078.92 188.425C1095.92 188.99 1113.14 189.352 1130.17 189.501C1139.62 189.58 1148.04 189.541 1155.61 188.212C1165.06 186.538 1172.03 182.954 1178.17 179.794L1253.24 141.17C1266.37 134.411 1281.27 126.747 1300.86 121.882C1318.21 117.559 1344.67 114.768 1366.85 119.877C1371.19 120.884 1375.1 122.133 1378.89 123.344C1382.4 124.476 1385.72 125.545 1389.37 126.425C1404.35 130.048 1422.05 129.962 1440 128.201V130.575C1412.52 133.184 1397.53 131.133 1386.45 128.453C1382.46 127.494 1378.83 126.331 1375.33 125.207C1371.55 123.996 1367.98 122.849 1364.03 121.937C1347.53 118.133 1323.92 118.903 1303.83 123.894C1285.15 128.539 1271.21 135.708 1257.73 142.64L1182.68 181.264C1176.42 184.479 1168.67 188.472 1157.89 190.374C1150.75 191.631 1143.01 191.883 1135.03 191.883C1133.38 191.883 1131.71 191.875 1130.04 191.859C1112.91 191.71 1095.55 191.341 1078.46 190.775C1064.49 190.303 1050.93 189.674 1038.8 187.065C1024.88 184.078 1014.89 178.827 1006.94 174.088C993.12 165.835 983.674 158.132 978.048 150.539C968.333 137.397 969.235 123.603 970.099 110.257C970.502 104.173 970.906 97.8852 975.571 91.888C985.958 78.5417 1015.91 67.9857 1064.56 60.5109C1155.97 46.4572 1263.57 45.1839 1393.48 56.6045ZM350.323 7C347.021 15.0722 338.285 22.775 329.741 30.297C328.032 31.814 326.323 33.3153 324.672 34.8087C311.194 47.0546 305.03 57.9407 305.818 68.0958C306.317 74.2973 311.674 80.1845 316.858 85.883C321.139 90.599 325.574 95.48 327.322 100.565C331.738 113.472 330.739 125.772 324.461 136.14C315.648 150.673 289.747 159.295 245.299 162.502C192.173 166.33 142.426 172.469 105.005 177.381C77.3952 181.013 53.4528 182.82 32.16 182.82C20.7168 182.82 10.0608 182.302 0 181.264V180.447C28.5312 183.441 62.112 182.199 104.429 176.635C141.888 171.706 191.712 165.56 244.954 161.724C288.576 158.58 313.978 150.146 322.598 135.951C328.819 125.686 329.798 113.479 325.421 100.668C323.712 95.6765 319.315 90.8348 315.053 86.1581L314.038 85.0406C309.133 79.6274 304.365 74.0385 303.898 68.1194C303.091 57.8463 309.312 46.8423 322.925 34.4864C324.576 32.9852 326.285 31.4839 327.994 29.9669C328.52 29.5027 329.048 29.0378 329.575 28.5721L331.153 27.1728C338.495 20.6321 345.458 13.9394 348.365 7H350.323ZM573.754 7C553.344 16.1805 542.131 25.5339 540.365 34.8401C539.328 40.3736 541.67 45.9856 543.936 51.4169C544.397 52.5251 544.858 53.6334 545.299 54.7338C553.997 76.8361 551.674 99.9995 538.56 121.732C542.669 127.997 546.95 134.466 555.59 140.031C557.933 141.547 560.64 143.017 563.27 144.432C568.147 147.073 573.178 149.8 576.154 152.952C578.246 155.169 579.283 157.566 580.282 159.885C581.76 163.343 583.181 166.605 587.75 169.356C593.53 172.83 603.898 175.149 619.43 176.438C646.291 178.678 673.325 177.452 695.597 172.995C719.789 168.154 738.086 159.358 744.499 149.47C749.779 141.335 747.302 132.713 744.902 124.373C743.942 121.056 742.963 117.622 742.483 114.258C739.968 97.0206 750.72 79.4142 772.742 64.6845C777.926 61.2026 783.878 57.7756 789.638 54.4508L791.218 53.5396C791.745 53.2355 792.272 52.9309 792.798 52.6259L794.376 51.7094L795.947 50.7898C808.744 43.2662 820.6 35.3997 823.488 26.4063C825.504 20.1262 822.95 13.4531 816.269 7H818.323C824.928 13.4924 827.405 20.1891 825.389 26.5085C821.971 37.1667 806.323 46.1821 791.213 54.9067C785.472 58.2158 779.539 61.6427 774.374 65.0933C752.563 79.6893 741.907 97.1306 744.384 114.21C744.883 117.551 745.862 120.978 746.803 124.287C749.222 132.697 751.718 141.39 746.342 149.667C739.795 159.775 721.133 168.759 696.442 173.703C681.178 176.752 663.725 178.317 645.619 178.317C636.864 178.317 627.955 177.955 619.066 177.208C602.995 175.872 592.243 173.451 586.176 169.796C581.357 166.904 579.84 163.406 578.381 160.026C577.402 157.739 576.384 155.381 574.349 153.235C571.488 150.186 566.534 147.505 561.734 144.912C559.085 143.473 556.358 141.995 553.958 140.455C545.126 134.756 540.806 128.193 536.64 121.835L536.563 121.74L536.621 121.638C549.734 99.9838 552.077 76.8911 543.398 54.8595C542.976 53.7591 542.515 52.6587 542.054 51.5505C539.75 46.0721 537.389 40.405 538.445 34.7772C540.211 25.4789 551.194 16.149 571.162 7H573.754ZM1085.89 71.3813C1134.39 64.8653 1224.67 52.7373 1257.66 80.153C1265.89 87.0069 1267.55 95.5586 1262.3 104.244C1258.16 111.129 1249.94 118.117 1236.48 126.236C1223.4 134.128 1207.3 142.066 1185.79 151.223C1169.01 158.368 1154.19 163.933 1136.39 167.839C1122.11 170.975 1107.4 172.579 1093.5 172.579C1086.74 172.579 1080.19 172.201 1073.97 171.439C1055.16 169.136 1037.93 162.927 1026.7 154.399C1016.41 146.578 1011.69 137.743 1008.13 129.364C1002.57 116.254 999.398 101.281 1018 89.6007C1034.53 79.2177 1064.68 74.2266 1085.89 71.3813ZM1255.93 80.4989C1223.67 53.7041 1134.43 65.6828 1086.49 72.128C1065.54 74.9418 1035.82 79.8543 1019.62 90.033C1001.36 101.485 1004.52 116.27 1010.04 129.231C1013.57 137.547 1018.23 146.303 1028.39 154.021C1039.39 162.369 1056.19 168.444 1074.53 170.685C1092.83 172.925 1115.04 171.636 1135.47 167.148C1153.06 163.288 1167.76 157.771 1184.41 150.673C1205.84 141.555 1221.87 133.648 1234.91 125.796C1248.23 117.755 1256.35 110.846 1260.44 104.055C1265.59 95.5508 1263.97 87.1877 1255.93 80.4989ZM53.3376 77.064C92.8128 69.5263 139.238 67.8678 184.09 72.4031C222.701 76.3095 260.774 81.78 277.766 95.2442C293.395 107.632 296.525 120.758 286.157 130.371C277.555 138.341 258.624 144.817 228.269 150.17C199.814 155.192 168.173 158.832 131.501 161.292C101.99 163.273 70.1376 164.444 31.296 164.986C28.3008 165.025 25.248 165.057 22.1376 165.057C14.8416 165.057 7.3152 164.907 0 164.467V163.673C10.3872 164.31 21.2544 164.341 31.2192 164.2C70.0032 163.658 101.76 162.487 131.194 160.514C167.693 158.069 199.2 154.446 227.52 149.455C257.395 144.173 276.019 137.83 284.41 130.056C294.547 120.656 291.418 107.781 276.058 95.6058C259.911 82.8124 224.036 77.3553 187.062 73.5171L184.774 73.2817L183.629 73.1655C139.219 68.6774 93.216 70.3123 54.144 77.7793C33.9264 81.6464 15.5328 87.1327 0 93.9002V92.7605C15.4176 86.1974 33.4848 80.8604 53.3376 77.064ZM829.44 68.8425C843.418 66.7517 857.818 67.4277 871.104 70.7918C907.718 80.0744 905.05 101.485 903.091 117.119C902.918 118.557 902.726 119.956 902.592 121.308C901.786 129.042 900.154 137.948 890.765 145.737C880.704 154.092 862.003 159.681 843.13 159.979C842.573 159.995 842.035 159.995 841.478 159.995C823.046 159.995 804.384 155.106 793.555 147.38C782.63 139.606 780.538 130.473 779.942 123.391C779.77 121.308 779.674 119.28 779.674 117.307C779.674 105.274 782.957 95.2757 789.658 86.8812C796.397 78.416 811.642 71.507 829.44 68.8425ZM870.106 71.4599C857.338 68.2215 843.494 67.5692 830.093 69.5813C812.832 72.1673 798.048 78.8876 791.482 87.1248C783.763 96.8084 780.614 108.661 781.862 123.359C782.458 130.355 784.512 139.362 795.206 146.994C806.016 154.697 824.774 159.492 843.053 159.201C861.235 158.91 879.283 153.487 889.037 145.391C898.253 137.743 899.885 128.932 900.672 121.269C900.806 119.925 900.998 118.518 901.171 117.071C903.11 101.634 905.76 80.4989 870.106 71.4599ZM1094.52 83.187C1134.01 77.2605 1190.13 71.2241 1221.33 87.1877C1228.34 90.764 1231.85 94.7176 1231.85 98.9777C1231.85 101.045 1231.03 103.191 1229.38 105.399C1224.54 111.884 1214.76 117.983 1205.84 123.092C1195.14 129.199 1182.97 135.181 1168.61 141.375C1158.07 145.926 1146.41 150.563 1132.63 153.683C1121.8 156.143 1110.2 157.425 1099.35 157.425C1094.9 157.425 1090.56 157.212 1086.47 156.772C1072.13 155.24 1059.01 150.846 1050.51 144.715C1042.46 138.875 1039.07 132.131 1036.8 126.291C1036.53 125.639 1036.3 124.979 1036.07 124.318C1033.48 116.733 1031.6 105.651 1045.25 97.0599C1054.56 91.2042 1070.21 86.7947 1094.52 83.187ZM1164.1 77.7479C1140.6 77.7479 1115.64 80.8526 1095.19 83.9258C1071.28 87.4707 1055.92 91.778 1046.86 97.4843C1033.56 105.863 1035.42 116.749 1037.97 124.208C1038.2 124.869 1038.43 125.521 1038.68 126.173C1040.93 131.935 1044.29 138.6 1052.18 144.322C1060.44 150.28 1073.11 154.54 1086.95 156.01C1100.54 157.464 1116.86 156.371 1131.69 152.999C1145.24 149.926 1156.78 145.336 1167.23 140.832C1181.53 134.67 1193.64 128.712 1204.28 122.628C1213.11 117.574 1222.79 111.546 1227.55 105.171C1232.41 98.6633 1229.82 92.7762 1219.83 87.675C1212.61 83.9808 1203.99 81.4971 1194.51 79.9408C1185.04 78.3845 1174.71 77.7479 1164.1 77.7479ZM77.0688 84.2717C106.464 79.6814 140.218 78.864 172.109 81.9765C174.086 82.173 176.064 82.3695 178.061 82.5739C204.48 85.2856 233.299 89.475 246.682 99.9445C259.142 109.636 261.35 120.011 252.595 127.69C245.338 134.01 229.69 139.174 204.787 143.465C182.381 147.332 156.806 150.233 128.755 152.088C114.24 153.055 99.0528 153.762 82.368 154.257C72.1344 154.556 61.5744 154.768 50.0928 154.909C48.0768 154.933 46.0224 154.949 43.9296 154.949C28.5696 154.949 11.6352 154.171 0 150.39V149.36C12.672 153.896 33.0432 154.32 50.0352 154.123C61.4976 153.982 72.0192 153.77 82.2144 153.471C98.8608 152.976 113.99 152.276 128.448 151.317C156.346 149.463 181.786 146.586 204.038 142.742C228.499 138.529 243.802 133.491 250.848 127.36C259.354 119.901 257.165 109.785 244.973 100.306C238.464 95.2049 228.115 91.6365 216.154 89.0034C204.173 86.3703 190.598 84.6725 177.6 83.3363C175.603 83.132 173.626 82.9355 171.667 82.739C159.072 81.5128 146.189 80.9076 133.402 80.9076C114.182 80.9076 95.1936 82.2831 77.7408 85.0105C74.8224 85.4664 71.9232 85.9616 69.1008 86.496C46.5792 90.7169 26.8992 97.3743 12.2112 105.737C10.1568 106.901 8.1792 108.111 6.3552 109.321C4.032 110.862 1.92 112.426 0 114.022V112.3C1.4592 111.161 3.0336 110.029 4.7232 108.913C6.5664 107.679 8.5632 106.453 10.656 105.274C25.536 96.8005 45.4656 90.0566 68.3136 85.7808C71.1552 85.2384 74.112 84.7354 77.0688 84.2717ZM598.061 7C582.586 14.7735 574.003 22.5078 572.486 30.0298C571.584 34.51 573.197 39.0688 574.733 43.4704C575.059 44.4057 575.386 45.3332 575.693 46.2607C581.53 64.1029 579.091 83.0062 568.646 100.919C570.24 103.717 572.064 106.877 574.56 109.864C576.48 112.175 578.611 114.155 581.088 115.916C582.931 117.237 585.101 118.526 587.194 119.767C590.784 121.913 594.509 124.122 596.832 126.621C598.426 128.327 599.366 130.135 600.269 131.888C601.747 134.772 603.149 137.492 607.238 139.748C612.058 142.428 620.621 144.228 632.659 145.108C654.106 146.68 675.398 145.438 692.602 141.61C711.168 137.476 725.338 130.048 730.483 121.74C734.573 115.232 732.96 108.363 731.386 101.713C730.752 99.017 730.099 96.2346 729.83 93.4993C728.448 79.815 737.011 65.6435 753.946 53.6098C757.786 50.8824 762.106 48.1785 766.31 45.5612L767.007 45.126L768.4 44.2538C779.313 37.4104 790.05 30.298 792.288 22.1855C793.651 17.273 791.731 12.0618 786.816 7H788.87C793.709 12.0933 795.571 17.328 794.208 22.2798C792.111 29.8574 782.843 36.5222 772.827 42.8993L771.425 43.7873C770.957 44.0827 770.487 44.3776 770.018 44.6719L768.608 45.5536C768.373 45.7003 768.139 45.847 767.904 45.9935C763.738 48.5951 759.418 51.2911 755.616 54.0028C738.854 65.9107 730.387 79.9329 731.75 93.4679C732.019 96.1796 732.672 98.9541 733.286 101.634C734.88 108.355 736.512 115.295 732.346 121.937C727.066 130.449 712.55 138.066 693.523 142.302C680.89 145.108 666.125 146.554 650.707 146.554C644.64 146.554 638.496 146.334 632.314 145.878C619.776 144.967 610.829 143.064 605.683 140.219C601.363 137.822 599.846 134.89 598.387 132.053C597.504 130.331 596.582 128.547 595.046 126.896C592.8 124.491 589.152 122.314 585.6 120.215C583.488 118.958 581.299 117.653 579.418 116.309C576.883 114.501 574.694 112.473 572.736 110.123C570.202 107.066 568.358 103.851 566.726 101.013L566.669 100.919L566.726 100.833C577.152 82.9748 579.59 64.1422 573.792 46.3629C573.485 45.4354 573.158 44.5158 572.832 43.5883C571.277 39.1395 569.664 34.5414 570.566 29.9669C572.083 22.4449 580.493 14.7342 595.603 7H598.061ZM89.7792 93.405C111.706 90.0645 136.685 89.4042 160.128 91.55C161.568 91.6836 163.046 91.8251 164.506 91.9666C182.88 93.7508 205.286 96.8005 215.597 104.637C224.89 111.711 226.176 119.327 219.014 125.026C213.158 129.687 200.813 133.522 181.306 136.761C164.621 139.527 146.016 141.595 126.01 142.892C115.526 143.575 104.179 144.086 92.3136 144.416C84.8832 144.621 76.992 144.762 68.9088 144.833C67.8912 144.841 66.8736 144.841 65.8368 144.841C52.0704 144.841 36.1728 144.094 27.6288 139.598C23.52 137.437 21.216 134.678 20.7552 131.4C20.6784 130.795 20.64 130.158 20.6592 129.522C20.9088 123.312 25.9968 116.946 35.3472 111.129C36.7872 110.233 38.3232 109.345 39.8976 108.504C51.2256 102.428 66.2208 97.5865 83.2896 94.4897C85.4016 94.1045 87.5904 93.7351 89.7792 93.405ZM132.576 91.102C118.099 91.102 103.699 92.1238 90.4512 94.1438C88.3008 94.4661 86.1504 94.8276 84.0576 95.2049C67.296 98.2467 52.5504 103.01 41.4144 108.976C39.8784 109.809 38.3616 110.681 36.96 111.562C27.8016 117.26 22.8288 123.469 22.5792 129.53C22.56 130.158 22.5984 130.764 22.6752 131.353C23.0976 134.473 25.2864 137.083 29.1456 139.111C37.8048 143.67 54.912 144.141 68.8704 144.047C76.9344 143.976 84.7872 143.835 92.1984 143.63C103.987 143.308 115.277 142.797 125.722 142.113C145.574 140.824 164.026 138.781 180.576 136.038C199.642 132.87 211.661 129.152 217.306 124.664C224.179 119.201 222.912 111.852 213.907 105.014C208.934 101.234 200.966 98.6004 192 96.6905C183.014 94.7805 173.05 93.6015 164.064 92.729C162.605 92.5875 161.146 92.4461 159.706 92.3203C150.797 91.5029 141.677 91.102 132.576 91.102ZM1103.12 95.0006C1128.19 90.4339 1172.7 87.4314 1187.62 93.908C1197.72 97.9716 1201.84 101.045 1196.45 106.57C1191.84 111.286 1182.74 116.01 1175.44 119.807L1175.17 119.948C1167.96 123.697 1160.08 127.698 1151.42 131.534C1144.86 134.434 1137.58 137.421 1128.86 139.527C1121.38 141.359 1113.08 142.333 1105.31 142.333C1103.16 142.333 1101.04 142.255 1098.99 142.106C1089.04 141.359 1080.06 138.789 1074.34 135.032C1068.56 131.243 1066.54 126.731 1065.45 123.218C1065.31 122.801 1065.2 122.377 1065.08 121.945C1063.2 114.564 1065.64 108.858 1072.51 104.511C1080.35 99.5436 1093.73 96.7062 1103.12 95.0006ZM1157.49 90.992C1139.81 90.992 1118.67 93.0277 1103.9 95.7158C1089.33 98.3646 1079.88 101.296 1074.12 104.936C1067.5 109.133 1065.16 114.666 1067 121.866C1067.1 122.283 1067.23 122.707 1067.35 123.124C1068.42 126.551 1070.38 130.96 1075.97 134.615C1081.4 138.183 1089.93 140.628 1099.33 141.335C1108.3 142.003 1118.71 141.099 1127.88 138.852C1136.39 136.792 1143.55 133.86 1150.02 130.999C1158.62 127.187 1166.48 123.202 1173.66 119.461L1173.93 119.319C1181.16 115.562 1190.15 110.886 1194.66 106.28C1199.19 101.642 1197.24 98.8834 1186.25 94.4661L1186.23 94.4582C1180.57 91.9902 1169.88 90.992 1157.49 90.992ZM825.024 96.0617C831.955 91.9666 842.016 90.033 854.938 90.3396C863.827 90.5439 870.278 92.226 874.118 95.3307C887.232 105.942 865.92 129.679 856.474 135.613C854.246 137.012 851.674 138.403 847.91 139.079C846.336 139.362 844.608 139.496 842.822 139.496C839.213 139.496 835.392 138.93 832.205 137.853C827.808 136.376 825.158 134.269 823.162 132.414C820.762 130.19 818.765 127.384 817.306 124.318C815.846 121.253 814.944 117.936 814.733 114.698C814.406 109.172 815.904 101.454 825.024 96.0617ZM852.384 91.0941C841.363 91.0941 832.685 92.9098 826.598 96.5097C811.661 105.329 815.635 123.477 824.909 132.092C826.829 133.868 829.325 135.873 833.414 137.248C837.619 138.663 843.014 139.103 847.123 138.356C850.445 137.767 852.806 136.486 854.861 135.189C865.632 128.421 884.333 105.329 872.41 95.6844C868.896 92.8469 862.982 91.3142 854.822 91.1256C853.997 91.102 853.19 91.0941 852.384 91.0941ZM102.509 102.53C116.966 100.448 133.171 99.9524 148.128 101.124C149.05 101.194 149.99 101.273 150.931 101.351C168.326 102.829 179.002 105.368 184.493 109.329C187.795 111.711 189.446 114.155 189.446 116.482C189.446 118.573 188.122 120.577 185.434 122.361C180.864 125.387 171.84 127.903 157.805 130.056C146.976 131.722 135.36 132.941 123.264 133.695C116.582 134.104 109.517 134.403 102.278 134.576C97.728 134.686 92.9472 134.741 87.6864 134.756H87.2448C74.5152 134.756 66.3744 133.719 61.6512 131.51C58.5984 130.08 56.6784 128.303 56.1216 126.362C56.0064 125.969 55.9296 125.56 55.9104 125.144C55.584 121.19 59.0784 117.111 65.9904 113.338C67.008 112.78 68.0832 112.23 69.1584 111.719C76.8576 108.064 86.9184 105.116 98.2656 103.199C99.6672 102.963 101.069 102.743 102.509 102.53ZM131.904 101.289C122.131 101.289 112.282 101.957 103.142 103.277C101.741 103.474 100.358 103.694 98.9952 103.93C87.9168 105.8 78.1056 108.669 70.6176 112.23C69.5616 112.733 68.5248 113.259 67.5264 113.81C60.8832 117.433 57.5232 121.347 57.8304 125.12C57.8496 125.505 57.9264 125.883 58.0416 126.268C58.5408 128.052 60.3072 129.687 63.0912 130.992C67.488 133.043 75.36 134.01 87.6864 133.97C92.9088 133.955 97.6512 133.9 102.163 133.79C109.363 133.625 116.352 133.326 122.976 132.917C134.938 132.178 146.438 130.968 157.133 129.325C170.746 127.234 179.462 124.821 183.782 121.952C189.082 118.439 188.736 113.975 182.842 109.722C180.23 107.844 176.371 106.303 171.034 105.046C165.734 103.796 158.957 102.837 150.547 102.122C149.606 102.043 148.685 101.965 147.763 101.894C142.579 101.485 137.261 101.289 131.904 101.289ZM1148.1 101.249C1158.11 100.911 1163.87 101.548 1165.69 103.183C1169.16 106.272 1156.9 111.813 1144.45 116.828C1141.79 117.905 1139.35 119.131 1137 120.318C1133.45 122.102 1129.79 123.941 1125.18 125.356C1120.95 126.653 1115.42 127.454 1110.18 127.454C1105.59 127.454 1101.24 126.841 1098.22 125.387C1095.38 124.028 1094 122.063 1094.09 119.539C1094.25 116.395 1096.76 113.762 1100.29 111.617C1103.81 109.471 1108.32 107.812 1112.43 106.594C1122.28 103.67 1135.62 101.674 1148.1 101.249ZM1163.94 103.513C1162.54 102.247 1157.13 101.737 1148.26 102.035C1112.72 103.238 1096.32 113.008 1096.01 119.555C1095.92 121.874 1097.15 123.666 1099.68 124.876C1105.44 127.635 1116.81 126.944 1124.03 124.727C1128.44 123.375 1132.03 121.567 1135.51 119.822C1137.89 118.62 1140.36 117.378 1143.11 116.27C1149.73 113.605 1167.32 106.515 1163.94 103.513ZM115.277 111.656C122.861 110.768 130.675 110.445 137.299 110.736C144.864 111.082 150.432 112.206 153.389 114.014C156.672 116.01 156.096 117.999 151.718 119.752C147.206 121.567 139.738 122.715 134.266 123.359C127.277 124.185 119.232 124.688 112.205 124.743H110.995C104.083 124.743 98.7264 124.295 95.8272 123.469C93.5808 122.841 92.1792 122.157 91.5456 121.387C89.856 119.39 91.6608 117.354 96.7296 115.499C101.088 113.912 107.674 112.552 115.277 111.656ZM132.307 111.42C127.104 111.42 121.382 111.758 115.795 112.41C108.461 113.275 102.144 114.58 97.9968 116.089C94.9056 117.221 91.584 119.013 93.3504 121.135C93.8496 121.732 95.0208 122.29 96.9216 122.825C99.6672 123.603 105.082 124.004 112.166 123.957C119.04 123.902 126.912 123.414 133.728 122.605C141.274 121.717 147.034 120.538 150.374 119.194C154.118 117.692 154.579 116.144 151.795 114.446C148.474 112.426 141.965 111.742 137.088 111.522C135.552 111.452 133.958 111.42 132.307 111.42ZM1320.69 65.5649C1334.67 65.6828 1348.72 66.4845 1362.32 67.2705C1370.48 67.7342 1378.92 68.2215 1387.24 68.5438C1408.34 69.377 1425.48 68.9604 1440 67.2155V68.0329C1425.35 69.7542 1408.17 70.163 1387.07 69.3298C1378.69 68.9997 1370.23 68.5124 1362.05 68.0486C1348.51 67.2705 1334.52 66.4688 1320.65 66.3509C1314.36 66.3037 1307.29 66.5002 1303.07 68.3787C1297.77 70.7132 1299.74 74.4074 1300.84 75.885C1301.57 76.8833 1302.53 77.8736 1303.47 78.8404C1305.02 80.436 1306.62 82.0866 1307.27 83.8315C1308.02 85.8358 1307.48 87.8715 1306.96 89.8365C1306.71 90.7719 1306.46 91.7465 1306.35 92.6976C1306.12 94.7255 1306.64 98.4275 1312.74 100.393C1318.2 102.137 1325.3 101.839 1332.84 101.517C1336.95 101.344 1341.22 101.155 1345.27 101.328C1355.12 101.744 1363.24 104.228 1371.09 106.626C1373.66 107.404 1376.31 108.221 1378.96 108.936C1396.74 113.739 1419.36 115.201 1440 113.228V114.037C1434.05 114.588 1427.96 114.863 1421.86 114.863C1406.36 114.863 1390.89 113.094 1377.91 109.589C1375.22 108.858 1372.53 108.048 1369.96 107.254C1362.3 104.92 1354.39 102.507 1345.08 102.114C1341.22 101.949 1337.07 102.13 1333.04 102.295C1325.45 102.625 1317.62 102.955 1311.55 101.006C1304.77 98.8284 1304.18 94.8434 1304.43 92.6583C1304.54 91.6836 1304.81 90.7011 1305.06 89.7501C1305.56 87.8322 1306.1 85.8515 1305.37 83.9494C1304.76 82.2909 1303.2 80.6875 1301.68 79.1312C1300.74 78.1487 1299.76 77.1426 1299 76.113C1297.8 74.5017 1295.69 70.4852 1301.64 67.8443C1306.41 65.7456 1313.93 65.5177 1320.69 65.5649ZM622.349 7C611.674 13.4452 605.875 19.4267 604.608 25.2273C603.859 28.6543 604.723 32.1363 605.53 35.5082C605.722 36.2706 605.914 37.0252 606.067 37.7876C609.101 51.5033 606.643 65.7456 598.733 80.1137C599.846 82.6053 600.883 84.8533 602.362 87.062C603.571 88.8619 604.954 90.4182 606.586 91.8094C607.949 92.9727 609.581 94.1124 611.174 95.2128C613.478 96.8241 615.878 98.4825 617.53 100.29C618.586 101.438 619.334 102.625 620.083 103.772C621.6 106.13 623.021 108.355 626.688 110.131C630.662 112.065 637.114 113.283 645.85 113.77C661.632 114.666 677.568 113.377 689.587 110.225C702.662 106.798 712.474 100.888 716.486 94.0102C719.328 89.1291 718.579 84.0044 717.85 79.0448C717.542 76.9776 717.216 74.8397 717.158 72.741C716.909 62.4759 723.11 52.0299 735.149 42.5351C737.606 40.6015 740.314 38.6679 742.925 36.7973L743.529 36.3661L744.739 35.5015C752.39 30.0146 759.808 24.3177 761.107 17.9726C761.837 14.412 760.493 10.6628 757.286 7H759.322C762.451 10.6863 763.738 14.4513 763.027 18.0354C761.587 25.0544 752.947 31.2245 744.595 37.1903C741.984 39.0531 739.296 40.9788 736.858 42.8966C724.973 52.2815 718.829 62.5938 719.078 72.7332C719.136 74.8082 719.462 76.9383 719.75 78.9976C720.499 84.0123 721.267 89.1999 718.349 94.191C714.221 101.273 704.122 107.356 690.624 110.893C680.794 113.464 668.448 114.839 655.661 114.839C652.32 114.839 648.96 114.745 645.6 114.548C636.365 114.037 629.51 112.725 625.229 110.642C621.274 108.724 619.718 106.311 618.221 103.969C617.491 102.845 616.742 101.674 615.725 100.565C614.131 98.8205 611.789 97.1935 609.523 95.6136C607.91 94.4975 606.259 93.3421 604.858 92.1474C603.168 90.7169 601.747 89.1213 600.499 87.2742C598.982 85.0105 597.926 82.7154 596.813 80.1766L596.774 80.098L596.813 80.0194C604.704 65.7063 607.181 51.519 604.166 37.8584L603.629 35.5868C602.803 32.1756 601.939 28.6543 602.688 25.1566C603.955 19.3481 609.638 13.3902 620.045 7H622.349ZM1440 77.4492V78.2666C1417.86 80.7975 1394.04 80.0037 1372.7 79.2884C1363.99 78.9976 1351.85 78.9976 1347.23 82.3617C1343.75 84.9005 1346.76 88.2174 1351.37 90.0488C1356.42 92.0609 1363.55 93.0513 1370.5 93.8294C1394.76 96.5333 1418.4 97.1856 1440 95.8023V96.5961C1432.67 97.0677 1425.14 97.2957 1417.42 97.2957C1402.16 97.2957 1386.2 96.3918 1370 94.584C1362.8 93.7823 1355.4 92.7526 1350.03 90.6147C1344.79 88.5239 1341.56 84.8847 1345.56 81.9765C1350.72 78.2195 1363.6 78.1959 1372.86 78.5103C1394.21 79.2255 1418.05 80.0194 1440 77.4492ZM646.502 7C642.355 10.7728 637.958 15.4888 636.73 20.4249C636.154 22.7672 636.269 25.1487 636.384 27.4517L636.461 29.3303C636.71 38.5107 634.214 48.32 628.819 59.3162C629.146 60.9275 629.53 62.6409 630.163 64.2837C630.662 65.557 631.296 66.681 632.122 67.7342C633.024 68.8975 634.253 70.0529 635.424 71.169C636.384 72.0729 637.382 73.0083 638.227 73.9593C638.611 74.3995 638.957 74.8318 639.322 75.2641C640.954 77.2527 642.509 79.1391 646.099 80.4989C649.939 81.9608 655.238 82.3617 659.021 82.4403C669.178 82.6761 679.45 81.332 686.515 78.864C694.234 76.1759 699.61 71.9393 702.49 66.288C704.122 63.0732 704.198 59.7249 704.256 56.4866C704.294 55.0089 704.333 53.4762 704.506 51.9671C705.312 45.4118 709.402 38.3221 716.333 31.4839C717.35 30.4857 718.406 29.4875 719.443 28.4971C724.416 23.8125 729.542 18.9708 729.907 13.7675C730.061 11.5274 729.312 9.24796 727.68 7H729.658C731.251 9.25582 731.981 11.5431 731.827 13.791C731.462 19.1437 726.24 24.0641 721.21 28.8115C720.173 29.8019 719.117 30.7922 718.118 31.7826C711.264 38.5422 707.213 45.5376 706.426 52.0064C706.253 53.4998 706.214 55.0246 706.176 56.4944C706.118 59.772 706.042 63.1518 704.352 66.4452C701.395 72.2773 695.808 76.6553 687.763 79.4613C680.794 81.8979 671.309 83.2499 661.402 83.2499C660.576 83.2499 659.75 83.242 658.925 83.2263C654.835 83.1398 649.056 82.6918 644.794 81.0805C640.838 79.5792 639.226 77.6064 637.498 75.5156C637.152 75.0912 636.787 74.6589 636.422 74.2266C635.597 73.2991 634.618 72.3716 633.677 71.4756C632.467 70.3437 631.219 69.1726 630.278 67.97C629.434 66.8853 628.781 65.7221 628.262 64.4094C627.61 62.7195 627.226 60.9668 626.899 59.324L626.88 59.269L626.918 59.214C632.294 48.2493 634.79 38.4793 634.541 29.3381C634.522 28.7172 634.483 28.0962 634.464 27.4674C634.349 25.1409 634.234 22.7357 634.829 20.3384C636.038 15.4416 640.282 10.7728 644.371 7H646.502ZM313.613 7C314.573 9.35014 314.342 11.9282 312.883 14.577C310.579 18.7821 305.683 22.6807 300.941 26.4535L299.27 27.7976C291.149 34.3135 283.814 41.081 277.459 47.9113L277.19 48.1943C273.619 52.0535 269.914 56.0385 261.907 58.5459C253.67 61.124 242.842 61.517 232.378 61.5641C213.504 61.6349 194.419 60.8803 175.949 60.1493C154.118 59.2847 131.539 58.3887 109.325 58.8681C70.9056 59.7013 32.6016 64.8968 0 73.472V72.5288C32.64 64.0479 70.8672 58.9153 109.21 58.0821C131.578 57.6027 154.234 58.4987 176.141 59.3633C194.554 60.0943 213.6 60.8489 232.358 60.7781C242.496 60.7388 252.96 60.3615 260.736 57.9249C268.301 55.5512 271.91 51.6684 275.405 47.9192L275.674 47.6283C282.048 40.7744 289.402 33.9834 297.562 27.436L299.232 26.0919C303.917 22.3663 308.755 18.5149 311.021 14.4041C312.442 11.8025 312.634 9.2794 311.654 7H313.613ZM860.064 7C863.731 17.3673 857.818 29.008 842.88 40.0199L841.843 40.7744C839.366 42.5822 836.813 44.4372 835.757 46.4493C834.432 48.941 836.026 51.3933 839.77 52.6902C844.416 54.2936 850.714 54.0185 857.376 53.7277C861.293 53.5626 865.325 53.3819 869.146 53.5941C874.618 53.9006 879.514 55.0167 884.275 56.1014C889.248 57.2411 893.952 58.3101 899.27 58.538C911.962 59.0804 922.08 54.4823 925.843 52.4858C928.339 51.1496 930.624 49.6955 932.832 48.2886C936.461 45.9699 940.205 43.5804 945.101 41.5997C949.421 39.8627 954.547 38.4793 959.501 37.151C963.494 36.0741 967.622 34.9659 971.27 33.6768C989.126 27.3653 994.982 17.328 998.112 7H1000.03C996.864 17.5245 990.931 27.774 972.518 34.2742C968.774 35.5947 964.608 36.7187 960.557 37.8033C955.68 39.116 950.63 40.4757 946.445 42.1656C941.702 44.0756 938.016 46.4336 934.445 48.713C932.218 50.1357 929.914 51.5976 927.36 52.9653C923.635 54.9539 913.939 59.3633 901.363 59.3633C900.614 59.3633 899.846 59.3476 899.078 59.3162C893.357 59.0725 888.25 57.9092 883.334 56.7852C878.746 55.7399 874.003 54.663 868.877 54.3722C865.286 54.1757 861.37 54.3486 857.587 54.5137C850.81 54.8045 843.821 55.1111 838.541 53.2875C833.338 51.4876 832.723 48.4929 833.875 46.2843C834.989 44.1621 837.619 42.2442 840.173 40.3893L841.19 39.6347C855.974 28.7329 861.811 17.2259 858.125 7H860.064ZM275.136 7C277.306 10.089 277.978 13.5474 277.037 17.1551C275.52 22.8851 270.221 28.3635 265.248 32.9694C260.736 37.1274 255.149 41.8434 245.626 45.1524C237.005 48.1471 224.89 49.9942 210.586 50.4894C199.968 50.8509 189.197 50.4972 178.771 50.1593C176.89 50.0964 174.989 50.0335 173.107 49.9706C139.066 48.9252 104.621 49.2396 70.752 50.8902C49.056 51.9513 22.8096 53.8299 0 58.8053V57.9249C22.8672 53.0203 48.9216 51.1653 70.5216 50.1121C104.525 48.4536 139.085 48.1392 173.242 49.1925C175.142 49.2475 177.024 49.3104 178.925 49.3733C189.274 49.7112 199.968 50.0649 210.432 49.7034C224.314 49.2239 236.064 47.4397 244.378 44.5551C253.594 41.3482 259.066 36.7265 263.482 32.6472C268.416 28.1041 273.638 22.6964 275.136 17.0687C276.077 13.4766 275.366 10.0497 273.12 7H275.136ZM670.406 7C670.291 13.9797 666.95 20.9201 663.686 27.6561C661.478 32.207 659.213 36.9073 657.946 41.5683C657.197 44.3664 657.158 49.3025 665.338 50.8352C671.981 52.085 679.872 50.12 683.347 47.5733C686.458 45.3175 687.245 42.6294 688.032 40.0277C688.166 39.5483 688.32 39.0609 688.474 38.5815C689.587 35.186 691.507 31.7983 693.37 28.5207C694.848 25.8954 696.403 23.1759 697.498 20.4799C699.629 15.3002 699.725 10.8435 697.728 7H699.686C701.645 10.9064 701.549 15.4023 699.398 20.6135C698.285 23.3331 696.73 26.0605 695.232 28.7015C693.389 31.9634 691.469 35.3274 690.374 38.6837C690.221 39.1631 690.067 39.6426 689.933 40.122C689.126 42.8023 688.32 45.569 685.018 47.9585C681.965 50.1828 675.84 52.0064 669.658 52.0064C667.93 52.0064 666.202 51.8649 664.55 51.5505C655.258 49.8056 655.238 44.4922 656.045 41.4818C657.312 36.7894 659.597 32.0655 661.786 27.5067C665.05 20.81 668.371 13.9011 668.486 7H670.406ZM1083.71 7C1082.8 15.3395 1079.25 23.5689 1073.11 31.5861C1070.63 34.8008 1068.44 38.4164 1073.55 40.6329C1077.62 42.3936 1084.51 42.3621 1090.04 42.1421C1102.14 41.6547 1114.21 40.4757 1125.87 39.3439C1130.8 38.8644 1135.91 38.3614 1140.96 37.9212C1211.37 31.7983 1283.1 35.3825 1356.52 39.9334C1382.11 41.5211 1412.14 43.3839 1440 41.4268V42.2285C1431.48 42.8259 1422.74 43.0617 1414 43.0617C1394.05 43.0617 1374.09 41.8198 1356.23 40.7115C1282.98 36.1685 1211.44 32.5922 1141.36 38.6915C1136.33 39.1317 1131.24 39.6269 1126.31 40.1063C1114.58 41.246 1102.46 42.425 1090.23 42.9202C1084.72 43.1403 1076.85 43.2032 1072.15 41.1674C1066.33 38.6444 1068.65 34.7772 1071.28 31.3503C1077.35 23.4195 1080.86 15.253 1081.77 7H1083.71ZM895.373 7C898.368 16.2041 895.392 25.8011 886.79 34.3842C885.965 35.2017 885.197 35.9877 885.408 36.7422C885.792 38.157 889.632 39.0609 893.107 39.1238C898.714 39.2103 903.821 37.7719 908.966 36.1606L925.517 30.9494C929.894 29.5661 934.848 28.0098 937.824 25.9505C940.339 24.2055 941.395 22.1619 942.413 20.1812L949.19 7H951.149L944.294 20.3463C943.238 22.382 942.163 24.4964 939.475 26.3513C936.326 28.5364 931.2 30.1477 926.688 31.5704L910.118 36.7815C904.877 38.4321 899.654 39.9098 893.645 39.9098H893.03C888.749 39.8391 884.006 38.6679 883.488 36.8287C883.219 35.8698 884.141 34.958 884.966 34.1484C893.51 25.6125 896.448 16.1019 893.453 7H895.373ZM234.163 7C236.544 11.1344 236.026 16.1569 232.474 21.1323C230.784 23.506 228.538 25.6911 225.85 27.5932C223.162 29.5032 220.032 31.1302 216.614 32.3878C204.346 36.9073 187.661 37.3946 171.533 37.8662C168.691 37.9527 165.869 38.0313 163.104 38.1335C140.102 39.0138 117.658 39.5011 96.4032 39.5954C92.4096 39.619 88.2624 39.6662 84.0192 39.7133C78.2016 39.7762 72.2112 39.8469 66.1632 39.8469C47.5968 39.8469 28.5696 39.2103 13.1712 35.9169C8.2176 34.8637 3.7824 33.4568 0 31.7983V30.6193C3.9168 32.4978 8.6784 34.0777 14.0544 35.2253C34.0224 39.4854 60.5568 39.1867 83.9616 38.9273C88.224 38.8802 92.3904 38.833 96.384 38.8094C117.6 38.7151 139.987 38.2278 162.931 37.3553C165.696 37.2453 168.538 37.1667 171.398 37.0802C172.638 37.0445 173.88 37.0086 175.124 36.9707L176.989 36.9121C190.982 36.4581 204.926 35.6344 215.328 31.8062C221.914 29.3774 227.347 25.5103 230.63 20.9122C234.144 15.9918 234.624 11.0322 232.205 7H234.163ZM73.6512 7C71.4327 7.14197 69.1781 7.29452 66.9327 7.46986L65.8111 7.55948C65.2508 7.6053 64.6916 7.65267 64.1342 7.70179L63.0219 7.80239C48.5982 9.14191 35.6873 11.745 36.768 18.9629C37.2864 22.4606 41.76 25.6518 48.6912 27.4832C52.0512 28.3713 56.1792 29.0316 60.96 29.4482C71.9232 30.3914 84.1344 30.1713 94.9248 29.9748C96.48 29.9512 98.016 29.9198 99.5136 29.8962C111.302 29.7233 123.283 29.3224 134.861 28.9294L141.062 28.725C141.83 28.7015 142.598 28.6779 143.366 28.6622L145.805 28.5993C155.654 28.3556 165.85 28.0962 174.086 26.0369C179.885 24.5828 184.512 22.3427 187.104 19.7332C191.29 15.4967 189.178 11.1501 181.555 8.38336C180.154 7.88032 178.598 7.41658 176.87 7H180.346C181.229 7.25152 182.054 7.51876 182.822 7.80172C191.078 10.7885 193.382 15.4731 188.87 20.024C186.125 22.7907 181.229 25.1645 175.085 26.705C166.445 28.8744 156.019 29.1338 145.92 29.3853L143.501 29.4403L141.216 29.511L135.034 29.7154C123.418 30.1084 111.418 30.5093 99.5904 30.6822C98.0928 30.7058 96.5568 30.7372 95.0208 30.7608C90.3936 30.8472 85.4976 30.9337 80.5632 30.9337C73.8432 30.9337 67.008 30.7686 60.5568 30.2106C55.5456 29.7783 51.2064 29.0866 47.6544 28.1434C40.2048 26.1784 35.4048 22.7593 34.848 19.0101C33.6576 11.1658 48 8.38336 63.0336 7H73.6512ZM1120.86 7C1121.28 11.5588 1118.96 16.1569 1114.08 20.252L1113.79 20.4956C1112.87 21.258 1111.93 22.044 1111.87 22.8458C1111.72 24.6143 1115.9 26.0212 1120.05 26.3592C1124.41 26.7207 1129.02 26.2413 1133.45 25.7775L1133.66 25.754C1179.67 20.9515 1227.01 19.073 1274.42 20.1812C1288.59 20.5113 1302.95 21.1166 1316.83 21.7061C1335.28 22.4842 1354.37 23.2938 1373.2 23.451C1398.68 23.6789 1420.78 22.6335 1440 20.2834V21.1008C1420.72 23.4274 1398.6 24.4649 1373.16 24.237C1354.25 24.0719 1335.13 23.2702 1316.64 22.4842C1302.78 21.9026 1288.44 21.2895 1274.3 20.9594C1227.11 19.8668 1179.96 21.7296 1134.14 26.5164L1133.93 26.54C1130.46 26.9015 1126.89 27.2709 1123.3 27.2709C1122.09 27.2709 1120.88 27.2316 1119.67 27.1295C1114.75 26.7286 1109.76 25.0073 1109.95 22.8143C1110.03 21.8475 1111.07 20.9829 1112.06 20.1498L1112.37 19.9061C1117.11 15.9132 1119.38 11.433 1118.96 7H1120.86ZM124.186 13.3037C128.141 13.3037 132.134 13.398 136.09 13.5788C144.403 13.9561 147.264 15.5988 147.168 17.0136C147.053 18.8057 142.138 20.8257 133.267 21.038C130.752 21.1008 128.237 21.0301 125.798 20.9672C123.955 20.9201 122.074 20.8729 120.211 20.8808C116.083 20.8886 111.859 21.1794 107.77 21.4545C103.526 21.7375 99.2064 22.0283 94.9056 22.0283C92.256 22.0283 89.6064 21.9183 86.976 21.6196C84.4224 21.3366 82.752 20.8886 81.9072 20.252C80.736 19.3874 81.2544 18.1926 83.136 17.3438C84.7488 16.6049 87.0336 16.2041 89.0304 15.8818C99.6288 14.1919 111.782 13.3037 124.186 13.3037ZM135.878 14.357C119.808 13.6181 103.411 14.4198 89.7216 16.6128C87.936 16.9036 85.9008 17.2573 84.5568 17.8704C83.424 18.3813 82.7136 19.238 83.5776 19.8747C84.1728 20.3148 85.4592 20.6371 87.4944 20.865C93.9264 21.5882 100.493 21.148 107.462 20.6764C111.61 20.3934 115.93 20.1026 120.192 20.0948C122.112 20.0869 124.051 20.1341 125.914 20.1812C128.294 20.2441 130.771 20.307 133.152 20.252C140.602 20.079 145.152 18.4599 145.248 16.9901C145.344 15.6381 141.754 14.6242 135.878 14.357Z" fill="white" fill-opacity="0.06"/>
</svg>
